<?xml version="1.0" encoding="utf-8"?>
<!-- Designed by Vexels.com - 2016 All Rights Reserved - https://vexels.com/terms-and-conditions/  -->

<svg version="1.1" id="Layer_1" xmlns="http://www.w3.org/2000/svg" xmlns:xlink="http://www.w3.org/1999/xlink" x="0px" y="0px"
	 width="1200px" height="1200px" viewBox="0 0 1200 1200" enable-background="new 0 0 1200 1200" xml:space="preserve">
<g>
	<path fill-rule="evenodd" clip-rule="evenodd" fill="#3C3B2E" d="M525.401,1122.044c0,0-43.645-196.058-32.128-262.766
		c33.273-19.06,36.068,4.135,38.626,0.958c2.563-3.18,183.896,2.536,183.896,2.536s-0.422,106.502-29.091,255.204
		c-12.651-2.257-23.495,2.26-23.495,2.26s-13.084-131.597-58.126-193.057c0,0-46.338,82.441-58.446,195.317
		C537.149,1121.592,525.401,1122.044,525.401,1122.044z"/>
	<g>
		<defs>
			<path id="SVGID_1_" d="M771.859,794.695c-0.146-7.794-0.625-16.264-1.524-25.203l-5.058-50.284
				c-3.559-35.424-15.228-98.606-41.459-125.596l-246.84,3.315c-38.579,28.866-43.026,96.404-47.426,140.247l-5.058,50.286
				c-0.901,8.928-1.38,17.401-1.524,25.197c-1.329,12.365-2.663,27.971-5.54,50.701c-6.614,17.812,30.455,17.961,36.804,0.877
				c7.039-18.949,10.468-48.655,15.807-74.626c8.005-22.586,3.41-16.924,11.109-43.659l1.897-6.281c0,0,7.055,12.108,7.834,37.83
				c0.75,24.824,0.706,87.018,0.706,87.018l225.859,1.57c0,0,0-67.525,0.049-115.727c2.457,7.404,4.901,14.551,7.291,21.295
				c5.336,25.971,8.768,55.675,15.807,74.618c6.346,17.082,43.418,16.932,36.804-0.877
				C774.519,822.669,773.188,807.065,771.859,794.695z"/>
		</defs>
		<clipPath id="SVGID_2_">
			<use xlink:href="#SVGID_1_"  overflow="visible"/>
		</clipPath>
		<g clip-path="url(#SVGID_2_)">
			<polygon fill="#71450A" points="464.425,851.693 464.425,884.89 796.705,883.017 796.578,867.827 735.456,867.827 
				735.456,845.238 796.391,845.238 794.004,557.336 407.798,559.531 410.209,851.693 			"/>
			<g>
				<polygon fill="#D4A603" points="799.048,576.105 398.614,578.369 398.418,556.225 798.864,553.952 				"/>
				<polygon fill="#D4A603" points="799.406,619.742 398.957,622.011 398.77,599.862 799.219,597.59 				"/>
				<polygon fill="#D4A603" points="799.784,663.38 399.312,665.656 399.144,643.495 799.6,641.227 				"/>
				<polygon fill="#D4A603" points="800.136,707.017 399.688,709.285 399.509,687.135 799.955,684.881 				"/>
				<polygon fill="#D4A603" points="800.496,750.657 400.048,752.928 399.861,730.769 800.315,728.515 				"/>
				<polygon fill="#D4A603" points="800.856,794.303 400.41,796.568 400.224,774.415 800.67,772.144 				"/>
				<polygon fill="#D4A603" points="801.205,837.932 400.776,840.21 400.584,818.055 801.035,815.782 				"/>
				<polygon fill="#D4A603" points="464.425,861.33 464.425,883.491 801.582,881.572 801.395,859.411 797.85,859.43 797.85,867.827 
					735.456,867.827 735.456,859.784 				"/>
			</g>
			<g opacity="0.6">
				<polygon fill="#C98E4B" points="795.249,845.238 792.21,548.344 765.946,548.524 768.966,845.238 				"/>
				<polygon fill="#C98E4B" points="769.194,867.827 769.383,886.194 795.666,886.015 795.482,867.827 				"/>
				<polygon fill="#C98E4B" points="735.456,867.827 735.456,845.238 743.485,845.238 740.468,548.712 714.204,548.893 
					717.646,886.557 743.904,886.373 743.715,867.827 				"/>
				<polygon fill="#C98E4B" points="665.871,886.919 662.448,549.253 688.72,549.073 692.162,886.738 				"/>
				<polygon fill="#C98E4B" points="614.137,887.29 610.703,549.618 636.975,549.431 640.406,887.106 				"/>
				<polygon fill="#C98E4B" points="562.381,887.653 558.944,549.986 585.216,549.797 588.658,887.461 				"/>
				<polygon fill="#C98E4B" points="510.631,888.018 507.194,550.343 533.466,550.161 536.905,887.826 				"/>
				<polygon fill="#C98E4B" points="464.425,851.693 464.425,888.345 485.16,888.202 481.707,550.526 455.438,550.71 
					458.509,851.693 				"/>
				<polygon fill="#C98E4B" points="433.025,851.693 429.975,550.89 403.69,551.082 406.748,851.693 				"/>
			</g>
		</g>
	</g>
	<path fill-rule="evenodd" clip-rule="evenodd" fill="#F3CBA9" d="M623.068,598.101c-4.354,0.165-33.917,41.562-33.917,39.053
		S558.07,595.13,558.07,595.13L623.068,598.101z"/>
	<polygon fill-rule="evenodd" clip-rule="evenodd" fill="#71450A" points="603.553,620.217 660.405,593.874 624.778,591.993 	"/>
	<polygon fill-rule="evenodd" clip-rule="evenodd" fill="#71450A" points="577.774,620.952 521.68,593.874 557.307,591.993 	"/>
	<path fill-rule="evenodd" clip-rule="evenodd" fill="#71450A" d="M582.326,833.548c0,2.457,1.356,23.479,2.319,32.071h27.313
		c0.628-9.266,5.488-79.762,9.028-97.001c3.789-18.453-4.546-117.757-6.064-124.122c-1.516-6.368,4.701-30.292,4.701-30.292
		l-16.795,6.779l-13.677,16.509c0,0-6.825,21.005-3.792,28.648c3.031,7.637,1.516,29.278,3.789,54.105
		c2.276,24.827,2.276,49.012-0.758,63.652C585.359,798.541,582.326,830.365,582.326,833.548z"/>
	<g>
		<path fill="#E9AF87" d="M768.374,844.335c0.831,1.028,1.621,2.373,1.626,4.801c-0.901-1.583-1.67-3.182-2.219-4.801H768.374z"/>
		<path fill="#E9AF87" d="M759.489,882.511c5.35-0.871,5.458-6.408,7.12-11.496c2.384-7.299,3.031-13.355,3.394-21.33
			c0.008-0.195-0.003-0.365-0.003-0.549c3.418,6.027,8.443,11.891,8.154,18.232c-0.382,8.492-10.506,23.714-20.435,23.403
			c-6.476-0.198-17.918-2.027-14.159-8.056C745.726,879.242,753.628,883.464,759.489,882.511z"/>
		<path fill-rule="evenodd" clip-rule="evenodd" fill="#DB9461" d="M763.132,889.772c4.817-2.106,2.993-7.437,2.806-12.706
			c-0.271-7.558-1.765-13.515-4.203-21.23c-1.848-5.864,2.571-7.602,3.694-11.501h0.714c2.944,8.971,6.747,17.512,9.575,26.48
			c2.595,8.219-1.781,25.214-11.391,27.295c-6.267,1.353-17.864,2.338-16.372-4.327
			C748.822,889.942,757.849,892.088,763.132,889.772z"/>
		<path fill-rule="evenodd" clip-rule="evenodd" fill="#F3CBA9" d="M739.161,857.365c1.548-5.128,3.824-9.085,6.952-13.03h21.338
			c1.023,1.689,1.77,3.807,2.173,6.435c1.424,9.309-4.904,13.72-9.848,20.356c-2.084,2.798-2.5,7.626-2.252,11.42
			c0.579,8.584-10.3,13.601-11.114,1.413c-0.211-3.136,2.346-8.543,0.579-11.791C744.567,867.713,737.331,863.451,739.161,857.365z"
			/>
		<path fill-rule="evenodd" clip-rule="evenodd" fill="#F3CBA9" d="M770.563,878.82c-0.333-9.228-2.157-16.505-5.133-25.925
			c-1.253-3.964-0.149-6.381,1.318-8.559h5.932c3.236,8.995,6.947,17.739,9.826,26.853c3.169,10.032-3.68,30.94-9.821,33.7
			c-19.852,8.933-15.33-0.793-5.385-9.068C771.878,892.004,770.788,885.252,770.563,878.82z"/>
	</g>
	<g>
		<path fill="#E9AF87" d="M430.79,850.927c-0.831,1.026-1.618,2.373-1.624,4.801c0.899-1.583,1.667-3.185,2.219-4.801H430.79z"/>
		<path fill="#E9AF87" d="M439.677,889.101c-5.353-0.869-5.461-6.408-7.123-11.493c-2.382-7.301-3.028-13.358-3.391-21.33
			c-0.008-0.197,0.003-0.368,0.003-0.549c-3.418,6.027-8.446,11.891-8.154,18.232c0.382,8.489,10.503,23.714,20.432,23.403
			c6.476-0.2,17.918-2.027,14.159-8.059C453.441,885.834,445.539,890.056,439.677,889.101z"/>
		<path fill-rule="evenodd" clip-rule="evenodd" fill="#DB9461" d="M436.035,896.364c-4.82-2.108-2.996-7.437-2.809-12.706
			c0.27-7.558,1.764-13.515,4.203-21.236c1.851-5.862-2.571-7.596-3.694-11.496h-0.714c-2.944,8.968-6.744,17.509-9.572,26.48
			c-2.595,8.219,1.778,25.214,11.387,27.292c6.27,1.356,17.866,2.341,16.372-4.325C450.342,896.534,441.314,898.68,436.035,896.364z
			"/>
		<path fill-rule="evenodd" clip-rule="evenodd" fill="#F3CBA9" d="M460.003,863.957c-1.545-5.128-3.824-9.087-6.952-13.03h-21.338
			c-1.023,1.689-1.77,3.805-2.17,6.433c-1.426,9.312,4.901,13.72,9.848,20.356c2.084,2.801,2.5,7.629,2.252,11.423
			c-0.582,8.581,10.297,13.601,11.112,1.413c0.214-3.139-2.344-8.546-0.579-11.793C454.596,874.306,461.835,870.043,460.003,863.957
			z"/>
		<path fill-rule="evenodd" clip-rule="evenodd" fill="#F3CBA9" d="M428.601,885.409c0.336-9.228,2.16-16.502,5.134-25.923
			c1.253-3.967,0.149-6.381-1.318-8.56h-5.929c-3.239,8.995-6.947,17.736-9.829,26.851c-3.169,10.035,3.68,30.943,9.823,33.703
			c19.85,8.933,15.328-0.793,5.385-9.068C427.285,898.594,428.376,891.842,428.601,885.409z"/>
	</g>
	<path opacity="0.2" fill-rule="evenodd" clip-rule="evenodd" d="M490.418,679.135c-17.198,42.855-25.904,66.689-33.376,113.839
		c-4.787,30.271-22.607,36.745-33.765,39.413c-0.276,3.445-0.571,7.087-0.888,10.911c9.932,5.18,24.889,7.166,36.696,3.867
		c3.856-21.612,6.573-48.062,10.278-71.952c7.461-27.901,15.488-61.225,22.662-94.232
		C491.244,679.417,490.635,678.616,490.418,679.135z"/>
	<path opacity="0.2" fill-rule="evenodd" clip-rule="evenodd" d="M710.838,691.313c18.451,34.699,18.97,56.998,26.981,95.169
		c5.142,24.513,24.264,29.752,36.228,31.911c0.298,2.793,0.614,5.737,0.956,8.836c-10.66,4.195-26.702,5.799-39.37,3.128
		c-4.135-17.495-7.052-38.912-11.028-58.253c-8.007-22.588-7.794-52.57-15.493-79.297
		C709.952,691.54,710.61,690.896,710.838,691.313z"/>
	<g>
		<path fill-rule="evenodd" clip-rule="evenodd" fill="#C98E4B" d="M614.164,662.243c0-3.813-3.732-6.901-8.338-6.901
			c-4.606,0-8.338,3.088-8.338,6.901c0,3.808,3.732,6.898,8.338,6.898C610.432,669.141,614.164,666.051,614.164,662.243z"/>
		<ellipse fill-rule="evenodd" clip-rule="evenodd" fill="#C98E4B" cx="605.826" cy="704.89" rx="8.338" ry="6.901"/>
		<path fill-rule="evenodd" clip-rule="evenodd" fill="#C98E4B" d="M614.164,747.537c0-3.808-3.732-6.895-8.338-6.895
			c-4.606,0-8.338,3.088-8.338,6.895c0,3.813,3.732,6.903,8.338,6.903C610.432,754.44,614.164,751.35,614.164,747.537z"/>
		<ellipse fill-rule="evenodd" clip-rule="evenodd" fill="#C98E4B" cx="605.826" cy="790.189" rx="8.338" ry="6.901"/>
		<path fill-rule="evenodd" clip-rule="evenodd" fill="#C98E4B" d="M614.164,832.836c0-3.808-3.732-6.895-8.338-6.895
			c-4.606,0-8.338,3.088-8.338,6.895c0,3.813,3.732,6.901,8.338,6.901C610.432,839.737,614.164,836.649,614.164,832.836z"/>
	</g>
	<g>
		<g>
			<path fill-rule="evenodd" clip-rule="evenodd" fill="#783E2A" d="M748.242,308.173l-21.227-61.007
				c29.638,8.685,57.701,44.843,51.769,91.958C774.038,322.625,764.279,312.793,748.242,308.173z"/>
			<path fill-rule="evenodd" clip-rule="evenodd" fill="#7D3B2A" d="M680.742,238.448l-47.715-78.122
				c39.14,5.441,58.908,9.269,67.035,9.915c108.378,8.634,105.874,184.65,30.309,213.793L680.742,238.448z"/>
			<path fill-rule="evenodd" clip-rule="evenodd" fill="#F3CBA9" d="M460.929,346.586c-3.069-8.236-33.202-23.645-47.459-7.545
				c-17.444,44.151,36.409,65.395,41.058,51.519l0.438-1.332c4.111-12.263,7.986-15.105,9.171-28.194
				C464.904,352.59,464.093,355.078,460.929,346.586z"/>
			<path fill-rule="evenodd" clip-rule="evenodd" fill="#F3CBA9" d="M772.395,349.804c-1.718,29.401-32.187,40.476-39.332,31.28
				l-3.22-4.162c-2.495-11.576-2.801-14.025-2.798-26.196c-0.003-18.38,21.211-28.909,35.148-23.93
				C772.493,330.478,772.934,340.496,772.395,349.804z"/>
			<path fill-rule="evenodd" clip-rule="evenodd" fill="#C48E59" d="M752.843,348.833c5.545,20.189-14.04,28.472-18.099,23.216
				l-1.564-2.032c-1.212-5.634-1.359-6.822-1.35-12.719C731.859,346.305,747.601,341.185,752.843,348.833z"/>
			<path fill-rule="evenodd" clip-rule="evenodd" fill="#7D3B2A" d="M511.264,223.966l39.15-75.006
				c-112.385-21.571-127.402,81.75-126.271,150.544c0.417,25.418,8.408,98.988,27.863,133.249L511.264,223.966z"/>
			<path fill-rule="evenodd" clip-rule="evenodd" fill="#F3CBA9" d="M712.388,533.035c-35.843,12.723-66.629,24.009-111.203,25.044
				c-60.648,1.41-106.87-12.034-131.943-29.105c-27.636-24.262-16.175-61.368-16.18-111.717
				c-0.008-90.661,11.994-194.627,20.237-205.298c19.052-51.451,170.75-58.938,238.694-18.271
				c13.344,7.983,13.147,32.864,16.015,62.838c3.307,34.728,1.724,90.697,7.91,138.974
				C744.053,459.06,755.019,514.295,712.388,533.035z"/>
			<path fill-rule="evenodd" clip-rule="evenodd" fill="#E6B485" d="M455.392,350.562c7.924-47.157,19.522-104.241,64.104-102.703
				c15.371,0.529,99.266,4.795,122.371-4.708c35.004-12.236,48.82-48.541,85.976,11.652c-0.95-10.232-1.572-19.838-2.544-28.35
				l-9.101-29.215c-1.228-1.411-2.614-2.599-4.205-3.551c-14.427-8.634-32.956-15.739-53.382-21.068l-138.273,12.082
				c-5.207,4.314-40.807,16.464-42.907,22.104C471.036,215.098,459.76,277.995,455.392,350.562z"/>
			<path fill-rule="evenodd" clip-rule="evenodd" fill="#7D3B2A" d="M469.164,291.586c-4.527,6.173-2.706,13.463-0.436,15.912
				c32.469-11.328,63.831-5.387,78.479-4.826c1.532-0.145,3.894-1.306,0.671-6.86C541.709,284.915,482.863,286.785,469.164,291.586z
				"/>
			<path fill-rule="evenodd" clip-rule="evenodd" fill="#7D3B2A" d="M683.513,157.513c-21.365-32.624-80.853-43.276-145.777-29.533
				c-43.811,9.266-94.389,99.665-58.833,134.319c39.74-35.768,128.219-24.207,159.652-33.063
				C657.474,223.912,704.437,189.483,683.513,157.513z"/>
			<path fill-rule="evenodd" clip-rule="evenodd" fill="#C48E59" d="M481.241,324.137c15.623-4.37,36.377-5.852,58.281,0.346
				c-3.505-6.366-14.944-13.885-26.015-14.479C491.382,309.475,485.677,317.392,481.241,324.137z"/>
			<g>
				<path fill-rule="evenodd" clip-rule="evenodd" fill="#1A1414" d="M512.863,324.12c9.626-0.03,17.609,6.874,17.828,15.378
					c0.219,8.457-7.329,15.299-16.852,15.331c-9.523,0.029-17.506-6.764-17.823-15.217
					C495.695,331.106,503.24,324.151,512.863,324.12z"/>
				<path fill-rule="evenodd" clip-rule="evenodd" fill="#FFFFFF" d="M518.925,330.811c2.03-0.008,3.718,1.522,3.77,3.414
					c0.06,1.889-1.54,3.422-3.564,3.427c-2.027,0.007-3.716-1.513-3.775-3.403C515.299,332.358,516.895,330.815,518.925,330.811z"/>
			</g>
			<path fill-rule="evenodd" clip-rule="evenodd" fill="#C48E59" d="M688.728,319.17c-14.711-3.545-33.438-4.052-53.488,2.413
				c2.971-6.021,14.824-11.963,23.089-12.312C678.831,308.05,684.317,313.05,688.728,319.17z"/>
			<path fill-rule="evenodd" clip-rule="evenodd" fill="#7D3B2A" d="M712.813,284.188c5.74,6.956,4.124,15.6,1.642,18.608
				c-38.882-11.32-75.192-2.488-92.276-0.958c-1.789-0.076-4.644-1.294-1.291-7.983
				C627.276,280.733,696.403,279.385,712.813,284.188z"/>
			<g>
				<path fill-rule="evenodd" clip-rule="evenodd" fill="#1A1414" d="M655.496,325.03c-9.583,0.03-17.425,6.951-17.517,15.419
					c-0.092,8.415,7.52,15.179,17.008,15.149c9.485-0.035,17.328-6.844,17.52-15.26C672.699,331.873,665.092,324.999,655.496,325.03
					z"/>
				<path fill-rule="evenodd" clip-rule="evenodd" fill="#FFFFFF" d="M660.897,330.739c-2.181,0.007-3.984,1.663-4.019,3.697
					c-0.035,2.031,1.702,3.67,3.875,3.664c2.176-0.009,3.984-1.657,4.024-3.688C664.816,332.379,663.084,330.735,660.897,330.739z"
					/>
			</g>
			<path fill-rule="evenodd" clip-rule="evenodd" fill="#BC8E61" d="M572.9,485.854c0.141-0.678,9.539,2.306,18.432,2.08
				c8.33-0.208,16.253-3.666,16.291-3.215c-1.81,6.729-9.339,10.382-16.234,10.477C579.149,495.363,573.184,489.314,572.9,485.854z"
				/>
			<path fill-rule="evenodd" clip-rule="evenodd" fill="#BC8E61" d="M567.342,529.616c0.263,0.77,16.557-2.612,32.066-2.354
				c14.513,0.235,28.237,4.145,28.299,3.637c-3.02-7.64-16.134-11.811-28.217-11.921
				C578.053,518.783,567.745,525.693,567.342,529.616z"/>
			<path fill-rule="evenodd" clip-rule="evenodd" fill="#7D3B2A" d="M751.051,310.75c0.124,0.556-5.047,11.212-8.676,36.247
				c-0.284,1.981,0.227,35.179-1.234,46.931c-0.52,4.233-4.043,0.104-4.062,0.204c-4.638,1.444-9.377-85.535-7.196-115.102
				c0.236-3.296,14.724,29.103,18.67,29.515L751.051,310.75z"/>
			<path fill-rule="evenodd" clip-rule="evenodd" fill="#BC8E61" d="M561.402,303.483c0.168-2.429,2.492-4.406,5.201-4.406
				c2.709,0,4.752,1.977,4.579,4.406c-0.928,12.593-3.391,50.414-4.057,79.822c-0.365,16.512-0.187,30.284,1.142,35.224
				c2.506,4.498,7.085,6.648,12.489,7.216c7.718,0.808,17.095-1.361,25.184-4.674c2.411-0.984,5.147-0.146,6.108,1.863
				c0.963,2.014-0.225,4.433-2.639,5.414c-9.553,3.904-20.813,6.438-30.399,5.438c-8.37-0.878-15.504-4.33-19.43-11.645
				c-0.16-0.246-0.279-0.513-0.363-0.796c-1.651-5.415-1.965-20.156-1.629-37.68C558.143,354.258,560.5,316.178,561.402,303.483z"/>
			<path fill-rule="evenodd" clip-rule="evenodd" fill="#BC8E61" d="M539.527,475.063c2.595,0,97.493-1.381,99.079-3.224
				c1.586-1.847,5.237-2.774,5.155,1.841c-0.078,4.599-2.238,9.641-2.79,11.925c-0.555,2.281,5.239-4.115-4.049-5.491
				c-9.298-1.376-97.285,0.459-97.285,0.459s-1.451,5.031-3.448,8.226c-1.994,3.187-1.472-4.645-1.927-9.412
				c-0.449-4.785,7.743-10.32,7.743-10.32L539.527,475.063z"/>
			<path fill-rule="evenodd" clip-rule="evenodd" fill="#7D3B2A" d="M442.286,405.511c-10.86-14.038,12.752,106.169,8.99,147.974
				c-3.651,40.552,19.904,32.629,9.263,48.089c-10.527,15.281,41.094,2.112,54.138,3.314c13.033,1.201,36.152,2.399,41.962,4.794
				c5.794,2.39,31.722-0.001,38.934-3.594c7.228-3.603,17.339-2.402,27.446-1.201c10.094,1.201,41.827,2.399,41.827,2.399
				s19.165-12.039,27.511-2.399c8.284,9.571,37.308,4.794,41.703,3.597c4.392-1.197,8.787-45.967,8.787-45.967
				s15.542-102.33,9.942-187.649c-1.323-20.188-12.662,18.612-14.6,1.712c-21.877,34.971-25.939,62.475-38.772,77.306
				c-12.698,14.676-52.154-31.365-87.277-25.802c-16.535,10.972-16.535,10.972-16.535,10.972s-3.085-17.728-23.095-9.519
				c-19.899,8.163-63.398,41.675-75.584,40.351C484.73,468.562,457.562,425.257,442.286,405.511z"/>
			<path fill-rule="evenodd" clip-rule="evenodd" fill="#F3CBA9" d="M539.638,480.573c0,0,56.164,2.869,53.951-18.601
				c2.947,28.584,61.309,17.485,60.05,18.483c-2.752,2.177-9.761,3.744-9.761,3.744s-22.646,7.476-56.928,7.178
				c-19.633-0.172-32.704-1.095-46.484-6.608c2.214,0.885-6.203-5.383-6.203-5.383"/>
		</g>
		<g>
			<path fill="#CF7851" d="M479.052,163.898l10.281-8.34l208.742-0.88l14.4,9.22c0,0,8.224,17.122,6.684,18.002
				c-1.542,0.877-18.51,28.975-18.51,28.975s-37.532,13.611-40.1,13.611c-2.573,0-124.428,1.756-125.97,2.195
				c-1.542,0.438-50.898-22.828-50.898-22.828L479.052,163.898z"/>
			<g>
				<g>
					<path fill="#5E3614" d="M709.798,161.686c-4.787-21.158-27.17-81.225-41.556-100.331c-14.386-19.11-23.184-10.924-46.363,1.361
						c-23.178,12.282-48.755,5.462-64.745-4.774c-15.986-10.243-27.974-7.511-41.562,10.915
						c-23.179,32.081-31.968,90.097-31.968,90.097l1.596,2.051C485.201,161.007,567.003,209.389,709.798,161.686z"/>
					<path fill="#5E3614" d="M709.798,161.686c-1.591,21.161-8.787,34.126-8.787,34.126s-8.059,19.987-108.7,23.206
						c-63.945,2.048-95.853-19.209-98.319-20.47c-7.991-4.094-10.389-39.593-10.389-39.593
						c-104.713,24.566-86.33,56.652-16.786,69.62c96.716,19.792,173.451,20.479,270.965,0
						C835.292,208.096,741.775,165.782,709.798,161.686z"/>
				</g>
			</g>
		</g>
	</g>
	<g>
		<path fill="#BA9274" d="M524.072,1110.459c0,0-16.012,12.386-34.791,17.081c-18.778,4.695-31.297,9.388-26.605,17.212
			c4.698,7.823,16.099,3.854,26.429,3.456c18.305-0.709,38.149-6.357,38.149-6.357l22.288-1.375c0,0-0.484-24.921-3.613-29.619
			C542.799,1106.167,524.072,1110.459,524.072,1110.459z"/>
		<path fill-rule="evenodd" clip-rule="evenodd" fill="#876C55" d="M464.715,1136.663c0,0,0.192,4.384,7.626,5.339
			c7.434,0.953,13.534-0.382,23.065-1.526c9.531-1.145,27.733-3.767,29.354-4.766c2.479-1.524,8.96-8.768,24.402-8.197
			c0.955,8.96,0.382,12.963,0.382,12.963s-16.394,3.05-22.288,1.375c-9.166,3.58-35.28,7.204-42.714,7.393
			c-7.434,0.192-10.102,1.334-16.394,0.382C466.368,1149.355,455.947,1145.431,464.715,1136.663z"/>
		<g>
			<path fill-rule="evenodd" clip-rule="evenodd" fill="#876C55" d="M494.066,1126.515c0,0,5.918,0.506,10.489,2.538
				c1.862,0.509,3.897-0.844,1.356-1.524c-2.538-0.674-7.953-2.706-7.953-2.706S492.713,1123.132,494.066,1126.515z"/>
			<path fill-rule="evenodd" clip-rule="evenodd" fill="#876C55" d="M499.143,1124.317c0,0,5.921,0.506,10.489,2.538
				c1.864,0.506,3.894-0.847,1.356-1.526c-2.538-0.674-7.953-2.706-7.953-2.706S497.79,1120.932,499.143,1124.317z"/>
			<path fill-rule="evenodd" clip-rule="evenodd" fill="#876C55" d="M503.882,1121.776c0,0,5.921,0.509,10.489,2.541
				c1.862,0.506,3.892-0.85,1.356-1.524c-2.541-0.677-7.953-2.709-7.953-2.709S502.526,1118.393,503.882,1121.776z"/>
			<path fill-rule="evenodd" clip-rule="evenodd" fill="#876C55" d="M508.279,1119.24c0,0,5.921,0.509,10.489,2.536
				c1.862,0.509,3.894-0.844,1.356-1.521c-2.538-0.676-7.953-2.706-7.953-2.706S506.926,1115.858,508.279,1119.24z"/>
		</g>
	</g>
	<g>
		<path fill="#BA9274" d="M683.437,1107.747c0,0,16.013,12.386,34.791,17.082c18.778,4.695,31.297,9.388,26.605,17.211
			c-4.698,7.824-16.099,3.856-26.429,3.456c-18.305-0.709-38.149-6.357-38.149-6.357l-22.288-1.375c0,0,0.484-24.919,3.613-29.619
			C664.711,1103.458,683.437,1107.747,683.437,1107.747z"/>
		<path fill-rule="evenodd" clip-rule="evenodd" fill="#876C55" d="M742.795,1133.954c0,0-0.192,4.384-7.626,5.337
			c-7.434,0.953-13.533-0.382-23.065-1.526c-9.531-1.142-27.733-3.767-29.354-4.766c-2.479-1.524-8.96-8.768-24.402-8.194
			c-0.955,8.957-0.382,12.96-0.382,12.96s16.394,3.05,22.288,1.375c9.166,3.583,35.281,7.204,42.715,7.393
			c7.434,0.192,10.102,1.334,16.394,0.382C741.141,1146.643,751.563,1142.722,742.795,1133.954z"/>
		<g>
			<path fill-rule="evenodd" clip-rule="evenodd" fill="#876C55" d="M713.444,1123.806c0,0-5.918,0.506-10.489,2.536
				c-1.862,0.509-3.897-0.844-1.356-1.524c2.538-0.674,7.953-2.704,7.953-2.704S714.797,1120.42,713.444,1123.806z"/>
			<path fill-rule="evenodd" clip-rule="evenodd" fill="#876C55" d="M708.367,1121.606c0,0-5.921,0.509-10.489,2.538
				c-1.864,0.506-3.894-0.847-1.356-1.526c2.538-0.674,7.953-2.703,7.953-2.703S709.72,1118.223,708.367,1121.606z"/>
			<path fill-rule="evenodd" clip-rule="evenodd" fill="#876C55" d="M703.628,1119.067c0,0-5.921,0.506-10.489,2.538
				c-1.862,0.509-3.891-0.847-1.356-1.524c2.541-0.676,7.953-2.709,7.953-2.709S704.984,1115.682,703.628,1119.067z"/>
			<path fill-rule="evenodd" clip-rule="evenodd" fill="#876C55" d="M699.231,1116.529c0,0-5.921,0.509-10.489,2.538
				c-1.862,0.506-3.894-0.844-1.356-1.524c2.538-0.674,7.953-2.706,7.953-2.706S700.584,1113.146,699.231,1116.529z"/>
		</g>
	</g>
	<path fill="#452211" d="M754.345,317.208c-3.924-0.382-16.879-1.567-25.904-3.921c-12.949-4.322-30.615-5.89-30.615-5.89
		s-27.863,0-45.524,0c-17.666,0-26.293,1.568-43.172,5.5c-9.807,2.283-19.874,2.971-26.594,3.145
		c-6.711-0.173-16.778-0.862-26.588-3.145c-16.876-3.932-25.506-5.5-43.169-5.5c-17.663,0-45.523,0-45.523,0
		s-17.669,1.568-30.615,5.89c-9.028,2.354-21.982,3.54-25.904,3.921c-0.785,10.209,0,23.154,0,23.154c1.177,0,5.493,0,7.848,12.171
		c2.354,12.17,6.676,24.725,9.42,34.933c2.747,10.202,8.246,21.584,30.615,23.154c22.369,1.568,52.982,3.921,76.136-5.108
		c16.876-7.844,20.404-18.446,23.151-30.217c2.536-10.841,6.741-33.661,19.038-36.894v0.003c0,0,1.721-0.284,5.591-0.371
		c3.878,0.086,5.597,0.371,5.597,0.371v-0.003c12.3,3.233,16.505,26.053,19.035,36.894c2.75,11.772,6.278,22.373,23.154,30.217
		c23.157,9.029,53.766,6.676,76.139,5.108c22.369-1.57,27.865-12.952,30.615-23.154c2.742-10.208,7.066-22.763,9.418-34.933
		c2.357-12.171,6.673-12.171,7.851-12.171C754.345,340.362,755.13,327.417,754.345,317.208z M549.67,367.842
		c-1.965,15.693-7.461,34.137-35.716,35.313c-28.255,1.179-53.374,0.4-53.374,0.4s-16.091-1.57-22.369-14.524
		c-6.281-12.952-8.638-33.75-8.638-33.75s-1.954-22.373,6.679-29.829c8.633-7.456,18.05-10.203,32.179-10.203
		c14.126,0,52.984,0,52.984,0s17.658,0.391,25.901,9.423C555.559,333.693,551.635,352.138,549.67,367.842z M735.507,355.281
		c0,0-2.354,20.798-8.638,33.75c-6.278,12.955-22.367,14.524-22.367,14.524s-25.122,0.778-53.374-0.4
		c-28.255-1.176-33.752-19.62-35.716-35.313c-1.967-15.704-5.891-34.149,2.354-43.169c8.243-9.032,25.901-9.423,25.901-9.423
		s38.858,0,52.984,0c14.126,0,23.547,2.747,32.179,10.203C737.464,332.908,735.507,355.281,735.507,355.281z"/>
</g>
</svg>
