<svg xmlns="http://www.w3.org/2000/svg" preserveAspectRatio="xMinYMin meet" viewBox="-1 38 1 64" width="35" height="34"><defs><linearGradient id="a" x1="64.01" y1="65.26" x2="32.99" y2="89.48" gradientUnits="userSpaceOnUse"><stop offset=".18"/><stop offset="1" stop-color="#444"/></linearGradient></defs><g class="header__svg-logo__icon"><path d="M2 41.25a2 2 0 0 0-2 2.32l8.49 51.54a2.72 2.72 0 0 0 2.66 2.27h40.73a2 2 0 0 0 2-1.68l8.51-52.11a2 2 0 0 0-2-2.32zM37.75 78.5h-13l-3.52-18.38H40.9z" fill="#444"/><path d="M59.67 60.12H40.9L37.75 78.5h-13L9.4 96.73a2.71 2.71 0 0 0 1.75.66h40.74a2 2 0 0 0 2-1.68z" fill="url(#a)"/></g></svg>
