<svg width="30" height="30" xmlns="http://www.w3.org/2000/svg"><path d="M29.555 9.501l-14-9.333a1 1 0 0 0-1.109 0l-14 9.333a1 1 0 0 0-.445.832v9.333a1 1 0 0 0 .445.832l14 9.333a.998.998 0 0 0 1.11 0l14-9.333a1 1 0 0 0 .445-.832v-9.333a1 1 0 0 0-.445-.832h-.001zM15 18.465L9.803 15 15 11.535 20.197 15 15 18.465zm1-8.667v-6.93l11.197 7.465L22 13.798l-6-4zm-2 0l-6 4-5.197-3.465L14 2.868v6.93zM6.197 15L2 17.798v-5.596L6.197 15zM8 16.202l6 4v6.93L2.803 19.667 8 16.202zm8 4l6-4 5.197 3.465L16 27.132v-6.93zM23.803 15L28 12.202v5.596L23.803 15z" fill="#000" fill-rule="nonzero"/></svg>
