<svg width="73px" height="100px" viewBox="0 0 73 100" version="1.1" xmlns="http://www.w3.org/2000/svg" xmlns:xlink="http://www.w3.org/1999/xlink">
    <title>Firebase</title>
    <defs>
        <linearGradient x1="-3.48177083%" y1="17.0266727%" x2="100.833333%" y2="92.8868033%" id="linearGradient-1">
            <stop stop-color="#FFFFFF" stop-opacity="0.1" offset="0%"></stop>
            <stop stop-color="#FFFFFF" stop-opacity="0" offset="100%"></stop>
        </linearGradient>
        <path d="M63.5753628,22.2679599 C63.4342961,21.4311752 62.8363026,20.7421584 62.0244583,20.4809852 C61.212614,20.219812 60.3220636,20.4299588 59.7148033,21.026004 L47.9628062,32.8245843 L38.6520451,15.2678452 C38.2786727,14.5158646 37.5083896,14.0398188 36.6649925,14.0398188 C35.8215953,14.0398188 35.0513122,14.5158646 34.6779398,15.2678452 L29.6251487,24.8647766 L16.8512388,1.26761606 C15.829326,-0.651770201 12.9339064,-0.143697367 12.5932688,2.00149904 L0.330315247,80.2447152 L33.2018435,98.5917901 C35.2703936,99.7209291 37.7757267,99.7209291 39.8442767,98.5917901 L72.9996695,80.2447152 L63.5753628,22.2679599 Z" id="path-2"></path>
        <path d="M63.5753628,22.2679599 C63.4342961,21.4311752 62.8363026,20.7421584 62.0244583,20.4809852 C61.212614,20.219812 60.3220636,20.4299588 59.7148033,21.026004 L47.9628062,32.8245843 L38.6520451,15.2678452 C38.2786727,14.5158646 37.5083896,14.0398188 36.6649925,14.0398188 C35.8215953,14.0398188 35.0513122,14.5158646 34.6779398,15.2678452 L29.6251487,24.8647766 L16.8512388,1.26761606 C15.829326,-0.651770201 12.9339064,-0.143697367 12.5932688,2.00149904 L0.330315247,80.2447152 L33.2018435,98.5917901 C35.2703936,99.7209291 37.7757267,99.7209291 39.8442767,98.5917901 L72.9996695,80.2447152 L63.5753628,22.2679599 Z" id="path-4"></path>
        <path d="M63.5753628,22.2679599 C63.4342961,21.4311752 62.8363026,20.7421584 62.0244583,20.4809852 C61.212614,20.219812 60.3220636,20.4299588 59.7148033,21.026004 L47.9628062,32.8245843 L38.6520451,15.2678452 C38.2786727,14.5158646 37.5083896,14.0398188 36.6649925,14.0398188 C35.8215953,14.0398188 35.0513122,14.5158646 34.6779398,15.2678452 L29.6251487,24.8647766 L16.8512388,1.26761606 C15.829326,-0.651770201 12.9339064,-0.143697367 12.5932688,2.00149904 L0.330315247,80.2447152 L33.2018435,98.5917901 C35.2703936,99.7209291 37.7757267,99.7209291 39.8442767,98.5917901 L72.9996695,80.2447152 L63.5753628,22.2679599 Z" id="path-6"></path>
    </defs>
    <g id="Welcome" stroke="none" stroke-width="1" fill="none" fill-rule="evenodd">
        <g id="Desktop-HD" transform="translate(-439.000000, -928.000000)">
            <g id="Group-3" transform="translate(0.000000, 587.000000)">
                <g id="logo-logomark" transform="translate(439.000000, 341.000000)">
                    <g id="_Path_5" fill="url(#linearGradient-1)" fill-rule="nonzero">
                        <path d="M63.5753628,22.2679599 C63.4342961,21.4311752 62.8363026,20.7421584 62.0244583,20.4809852 C61.212614,20.219812 60.3220636,20.4299588 59.7148033,21.026004 L47.9628062,32.8245843 L38.6520451,15.2678452 C38.2786727,14.5158646 37.5083896,14.0398188 36.6649925,14.0398188 C35.8215953,14.0398188 35.0513122,14.5158646 34.6779398,15.2678452 L29.6251487,24.8647766 L16.8512388,1.26761606 C15.829326,-0.651770201 12.9339064,-0.143697367 12.5932688,2.00149904 L0.330315247,80.2447152 L33.2018435,98.5917901 C35.2703936,99.7209291 37.7757267,99.7209291 39.8442767,98.5917901 L72.9996695,80.2447152 L63.5753628,22.2679599 Z" id="path-2"></path>
                    </g>
                    <g id="_Group_2-Clipped">
                        <mask id="mask-3" fill="white">
                            <use xlink:href="#path-2"></use>
                        </mask>
                        <g id="path-2"></g>
                        <g id="_Group_2" mask="url(#mask-3)">
                            <g transform="translate(-4.645455, -0.662252)" id="Group">
                                <g transform="translate(0.433935, 0.556189)">
                                    <g id="_Group_3">
                                        <path d="M4.54183466,80.3507775 L16.8615612,2.10756138 C17.2021987,-0.0376350247 20.0976183,-0.545707858 21.1195311,1.3736784 L33.8366681,24.9708389 L38.8894592,15.3739076 C39.2800822,14.6258268 40.0572064,14.1563567 40.9048983,14.1563567 C41.7525903,14.1563567 42.5297145,14.6258268 42.9203375,15.3739076 L77.2111888,80.3507775 L4.54183466,80.3507775 Z" id="_Path_" fill="#FFA000" fill-rule="nonzero"></path>
                                        <g id="_Group_4" transform="translate(0.000000, 19.946563)">
                                            <polygon id="Shape" fill="#F57C00" fill-rule="nonzero" points="47.0079886 29.9198446 33.7798952 5.0242758 4.54183466 60.4042146"></polygon>
                                        </g>
                                    </g>
                                    <g id="_Group_5" transform="translate(2.270917, 15.430360)">
                                        <g id="_Group_6" transform="translate(2.270917, 4.892553)" fill="#FFCA28" fill-rule="nonzero">
                                            <path d="M72.6693545,60.0278644 L63.2450476,2.05110885 C63.1039808,1.21432417 62.5059873,0.525307387 61.6941431,0.264134176 C60.8822988,0.00296096487 59.9917483,0.213107838 59.3844881,0.809153033 L0,60.0278644 L32.8715283,78.3749391 C34.9400783,79.5040781 37.4454115,79.5040781 39.5139615,78.3749391 L72.6693545,60.0278644 Z" id="_Path_2"></path>
                                        </g>
                                    </g>
                                    <path d="M67.7868822,22.3740222 C67.6458157,21.5372375 67.0478222,20.8482207 66.2359777,20.5870475 C65.4241334,20.3258743 64.533583,20.5360212 63.9263227,21.1320664 L52.1743255,32.9306466 L42.8635646,15.3739076 C42.4901921,14.6219269 41.7199091,14.1458812 40.8765119,14.1458812 C40.0331147,14.1458812 39.2628316,14.6219269 38.8894592,15.3739076 L33.8366681,24.9708389 L21.0627582,1.3736784 C20.0408454,-0.545707858 17.1454258,-0.0376350247 16.8047882,2.10756138 L4.54183466,80.3507775 L4.48506172,80.3507775 L4.54183466,80.4072305 L4.88247225,80.5765881 L52.1175526,33.495172 L63.9263227,21.7530443 C64.533583,21.1569991 65.4241334,20.9468522 66.2359777,21.2080254 C67.0478222,21.4691986 67.6458157,22.1582154 67.7868822,22.9950001 L77.0976433,80.4072305 L77.2111888,80.3507775 L67.7868822,22.3740222 Z M4.65538052,80.2378728 L16.8615612,2.67208675 C17.2021987,0.526890346 20.0976183,0.0188175124 21.1195311,1.93820377 L33.8366681,25.5353642 L38.8894592,15.938433 C39.2800822,15.1903521 40.0572064,14.7208821 40.9048983,14.7208821 C41.7525903,14.7208821 42.5297145,15.1903521 42.9203375,15.938433 L52.0040068,33.1000042 L4.65538052,80.2378728 Z" id="_Compound_Path_" fill-opacity="0.2" fill="#FFFFFF" fill-rule="nonzero"></path>
                                    <path d="M44.0557961,98.1333272 C41.9872461,99.2624662 39.481913,99.2624662 37.4133629,98.1333272 L4.59860759,79.8427046 L4.54183466,80.3507775 L37.4133629,98.6978523 C39.481913,99.8269914 41.9872461,99.8269914 44.0557961,98.6978523 L77.2111888,80.3507775 L77.1544161,79.8427046 L44.0557961,98.1333272 Z" id="_Path_3" fill="#A52714" fill-rule="nonzero" opacity="0.2"></path>
                                </g>
                            </g>
                        </g>
                    </g>
                    <g id="_Path_4-Clipped">
                        <mask id="mask-5" fill="white">
                            <use xlink:href="#path-4"></use>
                        </mask>
                        <g id="path-2"></g>
                        <polygon id="_Path_4" mask="url(#mask-5)" points="-17.8370233 -4.43409019 91.1670083 -4.43409019 91.1670083 103.954781 -17.8370233 103.954781"></polygon>
                    </g>
                    <g id="_Path_5-Clipped">
                        <mask id="mask-7" fill="white">
                            <use xlink:href="#path-6"></use>
                        </mask>
                        <g id="path-2"></g>
                        <path d="M63.5753628,22.2679599 C63.4342961,21.4311752 62.8363026,20.7421584 62.0244583,20.4809852 C61.212614,20.219812 60.3220636,20.4299588 59.7148033,21.026004 L47.9628062,32.8245843 L38.6520451,15.2678452 C38.2786727,14.5158646 37.5083896,14.0398188 36.6649925,14.0398188 C35.8215953,14.0398188 35.0513122,14.5158646 34.6779398,15.2678452 L29.6251487,24.8647766 L16.8512388,1.26761606 C15.829326,-0.651770201 12.9339064,-0.143697367 12.5932688,2.00149904 L0.330315247,80.2447152 L33.2018435,98.5917901 C35.2703936,99.7209291 37.7757267,99.7209291 39.8442767,98.5917901 L72.9996695,80.2447152 L63.5753628,22.2679599 Z" id="_Path_5" fill="url(#linearGradient-1)" fill-rule="nonzero" mask="url(#mask-7)"></path>
                    </g>
                </g>
            </g>
        </g>
    </g>
</svg>
