<svg width="99" height="80" xmlns="http://www.w3.org/2000/svg"><g fill-rule="nonzero" fill="none"><g fill="#000"><path d="M36.087 58.043h4.058v14.348h-4.058v-1.865c-1.45 2.152-3.333 2.296-4.493 2.296-4.493 0-7.391-3.444-7.391-7.605 0-4.304 2.898-7.604 7.101-7.604 1.16 0 3.334.144 4.638 2.296v-1.866h.145zm-7.536 7.174c0 2.296 1.594 4.018 4.058 4.018 2.319 0 4.058-1.722 4.058-4.018 0-2.295-1.595-4.017-4.058-4.017-2.32 0-4.058 1.722-4.058 4.017zM48.116 61.487v10.904h-4.058V61.487h-1.594v-3.444h1.594v-4.878h4.058v4.878h2.754v3.444zM60.435 61.487c-1.015-.86-1.884-1.004-2.32-1.004-1.014 0-1.593.43-1.593 1.147 0 .43.145.861 1.304 1.292l1.015.287c1.159.43 2.898.86 3.623 2.008.435.574.724 1.435.724 2.44 0 1.29-.434 2.582-1.594 3.586-1.16 1.005-2.608 1.579-4.348 1.579-3.043 0-4.637-1.435-5.652-2.44l2.174-2.439c.87.861 2.03 1.722 3.189 1.722 1.159 0 2.029-.574 2.029-1.578 0-.86-.725-1.291-1.305-1.435l-.87-.287c-1.014-.43-2.173-.86-3.043-1.722-.725-.717-1.16-1.578-1.16-2.726 0-1.434.725-2.582 1.45-3.3 1.16-.86 2.609-1.004 3.768-1.004 1.015 0 2.754.144 4.638 1.578l-2.03 2.296zM69.275 59.909c1.45-2.009 3.479-2.296 4.638-2.296 4.203 0 7.101 3.3 7.101 7.604 0 4.305-2.898 7.605-7.246 7.605-.87 0-3.043-.144-4.638-2.296v1.865h-3.913V48.287h4.058v11.622zm-.434 5.308c0 2.296 1.594 4.018 4.058 4.018 2.318 0 4.058-1.722 4.058-4.018 0-2.295-1.595-4.017-4.058-4.017-2.464 0-4.058 1.722-4.058 4.017zM87.681 70.24l-6.956-12.197h4.782L90 66.222l4.058-8.179h4.638L87.1 79.996h-4.637zM23.188 60.483H19.13h-6.087V64.5h5.363c-.87 2.726-2.899 4.591-6.667 4.591-4.203 0-7.246-3.443-7.246-7.604 0-4.16 2.898-7.748 7.101-7.748 2.319 0 4.638 1.148 6.087 3.013l3.333-2.152c-2.173-3.013-5.652-4.735-9.42-4.735C5.217 49.865 0 55.03 0 61.487c0 6.456 4.928 11.622 11.594 11.622 6.667 0 11.594-5.166 11.594-11.622.145-.43 0-.717 0-1.004z"/></g><g fill="#FFF"><path d="M66.607 20h-10.25v2.857h7.029a13.067 13.067 0 0 1-8.493 9.286l-16.84-16.429c1.758-5 6.736-8.571 12.447-8.571 4.393 0 8.346 2.143 10.836 5.428l2.196-1.857C60.604 6.857 55.918 4.286 50.5 4.286c-7.614 0-14.057 5.285-15.668 12.285L54.161 35.43c7.028-1.715 12.446-8 12.446-15.429zM34.393 20.143c0 4 1.61 7.857 4.686 10.857 3.075 3 7.175 4.571 11.128 4.571L34.393 20.143z"/></g><path d="M50.5 0C39.225 0 30 9 30 20s9.225 20 20.5 20S71 31 71 20 61.775 0 50.5 0zM39.079 31.143c-3.075-3-4.686-7-4.686-10.857l15.96 15.428c-4.1-.143-8.2-1.571-11.274-4.571zm14.935 4.143L34.832 16.57c1.61-7 8.054-12.285 15.668-12.285 5.418 0 10.104 2.571 13.032 6.428l-2.196 1.857c-2.49-3.285-6.443-5.428-10.836-5.428a13.302 13.302 0 0 0-12.446 8.571l16.839 16.429c4.246-1.429 7.468-5 8.493-9.286h-7.029V20h10.25c0 7.429-5.418 13.714-12.593 15.286z" fill="#639"/></g></svg>
