<svg width="261" height="61" viewBox="0 0 261 61" fill="none" xmlns="http://www.w3.org/2000/svg">
<g clip-path="url(#clip0)">
<path d="M127.039 33.957H125.412C125.303 34.6406 125.125 35.2832 124.879 35.8848C124.642 36.4863 124.323 37.0104 123.922 37.457C123.53 37.9036 123.047 38.2546 122.473 38.5098C121.908 38.7559 121.247 38.8789 120.49 38.8789C119.834 38.8789 119.255 38.7695 118.754 38.5508C118.253 38.332 117.811 38.0404 117.428 37.6758C117.054 37.3021 116.735 36.8737 116.471 36.3906C116.215 35.8984 116.001 35.3789 115.828 34.832C115.664 34.2852 115.546 33.7246 115.473 33.1504C115.4 32.5762 115.359 32.0202 115.35 31.4824V28.584C115.359 28.0462 115.4 27.4948 115.473 26.9297C115.546 26.3555 115.664 25.7949 115.828 25.248C116.001 24.7012 116.22 24.1862 116.484 23.7031C116.749 23.2109 117.068 22.7826 117.441 22.418C117.815 22.0534 118.253 21.7663 118.754 21.5566C119.264 21.3379 119.843 21.224 120.49 21.2148C121.247 21.2148 121.908 21.347 122.473 21.6113C123.038 21.8665 123.521 22.2174 123.922 22.6641C124.323 23.1198 124.642 23.6484 124.879 24.25C125.125 24.8516 125.303 25.4941 125.412 26.1777H127.039C126.93 25.2663 126.706 24.4232 126.369 23.6484C126.041 22.8646 125.604 22.1901 125.057 21.625C124.501 21.0508 123.84 20.6042 123.074 20.2852C122.309 19.9661 121.447 19.8112 120.49 19.8203C119.688 19.8203 118.968 19.9434 118.33 20.1895C117.692 20.4264 117.122 20.7546 116.621 21.1738C116.129 21.5931 115.701 22.0898 115.336 22.6641C114.971 23.2292 114.671 23.8353 114.434 24.4824C114.197 25.1296 114.019 25.8086 113.9 26.5195C113.782 27.2214 113.718 27.9186 113.709 28.6113V31.4824C113.718 32.1842 113.782 32.8861 113.9 33.5879C114.019 34.2806 114.197 34.9551 114.434 35.6113C114.671 36.2585 114.967 36.8646 115.322 37.4297C115.687 37.9948 116.12 38.487 116.621 38.9062C117.122 39.3255 117.692 39.6582 118.33 39.9043C118.977 40.1504 119.697 40.2734 120.49 40.2734C121.438 40.2734 122.29 40.1139 123.047 39.7949C123.812 39.4759 124.469 39.0339 125.016 38.4688C125.572 37.9036 126.018 37.2337 126.355 36.459C126.702 35.6842 126.93 34.8503 127.039 33.957Z" fill="white"/>
<path d="M130.621 32.3848V32.8223C130.621 33.834 130.771 34.791 131.072 35.6934C131.373 36.5957 131.806 37.3841 132.371 38.0586C132.936 38.7422 133.629 39.2845 134.449 39.6855C135.27 40.0775 136.199 40.2734 137.238 40.2734C138.268 40.2734 139.189 40.0729 140 39.6719C140.82 39.2708 141.508 38.7331 142.064 38.0586C142.63 37.375 143.062 36.5866 143.363 35.6934C143.664 34.791 143.814 33.834 143.814 32.8223V32.3848C143.814 31.373 143.664 30.416 143.363 29.5137C143.062 28.6113 142.63 27.8229 142.064 27.1484C141.499 26.4648 140.807 25.9271 139.986 25.5352C139.175 25.1341 138.25 24.9336 137.211 24.9336C136.172 24.9336 135.247 25.1341 134.436 25.5352C133.624 25.9362 132.936 26.474 132.371 27.1484C131.806 27.832 131.373 28.625 131.072 29.5273C130.771 30.4297 130.621 31.3822 130.621 32.3848ZM132.248 32.8223V32.3848C132.257 31.61 132.367 30.8581 132.576 30.1289C132.795 29.3997 133.114 28.7572 133.533 28.2012C133.952 27.6361 134.467 27.1849 135.078 26.8477C135.698 26.5104 136.409 26.3418 137.211 26.3418C138.013 26.3418 138.719 26.5104 139.33 26.8477C139.95 27.1849 140.469 27.6361 140.889 28.2012C141.308 28.7572 141.627 29.3997 141.846 30.1289C142.064 30.8581 142.178 31.61 142.188 32.3848V32.8223C142.178 33.6061 142.064 34.3626 141.846 35.0918C141.636 35.821 141.322 36.4681 140.902 37.0332C140.483 37.5892 139.968 38.0358 139.357 38.373C138.747 38.7103 138.04 38.8789 137.238 38.8789C136.427 38.8789 135.712 38.7103 135.092 38.373C134.472 38.0358 133.952 37.5892 133.533 37.0332C133.114 36.4681 132.795 35.821 132.576 35.0918C132.367 34.3626 132.257 33.6061 132.248 32.8223Z" fill="white"/>
<path d="M147.793 32.4668V32.7539C147.793 33.7109 147.916 34.6406 148.162 35.543C148.408 36.4453 148.768 37.2428 149.242 37.9355C149.725 38.6465 150.331 39.2161 151.061 39.6445C151.799 40.0638 152.66 40.2734 153.645 40.2734C154.538 40.2734 155.376 40.0911 156.16 39.7266C156.953 39.3529 157.605 38.8151 158.115 38.1133L158.17 40H159.701V19H158.061V27.2031C157.577 26.4922 156.958 25.9362 156.201 25.5352C155.445 25.1341 154.602 24.9336 153.672 24.9336C152.66 24.9336 151.785 25.1478 151.047 25.5762C150.309 25.9954 149.693 26.5651 149.201 27.2852C148.745 27.9596 148.395 28.748 148.148 29.6504C147.911 30.5527 147.793 31.4915 147.793 32.4668ZM149.434 32.7539V32.4668C149.434 31.7376 149.511 31.013 149.666 30.293C149.83 29.5729 150.085 28.9258 150.432 28.3516C150.796 27.7591 151.266 27.2806 151.84 26.916C152.414 26.5514 153.13 26.3691 153.986 26.3691C154.934 26.3691 155.764 26.6289 156.475 27.1484C157.195 27.668 157.723 28.3424 158.061 29.1719V36.2539C157.705 37.056 157.158 37.6849 156.42 38.1406C155.682 38.5964 154.861 38.8242 153.959 38.8242C153.111 38.8242 152.4 38.6465 151.826 38.291C151.261 37.9264 150.796 37.4525 150.432 36.8691C150.094 36.2949 149.844 35.6478 149.68 34.9277C149.516 34.2077 149.434 33.4831 149.434 32.7539Z" fill="white"/>
<path d="M171.404 40.2734C172.635 40.2734 173.715 40.0319 174.645 39.5488C175.574 39.0658 176.322 38.4323 176.887 37.6484L175.848 36.8555C175.319 37.5117 174.686 38.013 173.947 38.3594C173.209 38.7057 172.384 38.8789 171.473 38.8789C170.68 38.8698 169.96 38.7103 169.312 38.4004C168.665 38.0905 168.109 37.6712 167.645 37.1426C167.189 36.623 166.829 36.026 166.564 35.3516C166.309 34.6771 166.163 33.9479 166.127 33.1641V32.7129H177.201V31.7148C177.201 30.776 177.064 29.8965 176.791 29.0762C176.527 28.2467 176.135 27.5267 175.615 26.916C175.105 26.2962 174.467 25.8132 173.701 25.4668C172.945 25.1113 172.079 24.9336 171.104 24.9336C170.174 24.9336 169.308 25.125 168.506 25.5078C167.713 25.8906 167.02 26.4193 166.428 27.0938C165.826 27.7682 165.352 28.5612 165.006 29.4727C164.669 30.3841 164.5 31.3685 164.5 32.4258V33.0137C164.5 34.0072 164.669 34.946 165.006 35.8301C165.343 36.7051 165.817 37.4753 166.428 38.1406C167.029 38.7969 167.754 39.3164 168.602 39.6992C169.449 40.082 170.383 40.2734 171.404 40.2734ZM171.104 26.3418C171.805 26.3418 172.43 26.4785 172.977 26.752C173.523 27.0163 173.988 27.3717 174.371 27.8184C174.745 28.265 175.036 28.7845 175.246 29.377C175.465 29.9694 175.574 30.5618 175.574 31.1543V31.3047H166.209C166.3 30.5938 166.482 29.9375 166.756 29.3359C167.029 28.7253 167.376 28.2012 167.795 27.7637C168.223 27.3171 168.715 26.9707 169.271 26.7246C169.827 26.4694 170.438 26.3418 171.104 26.3418Z" fill="white"/>
<path d="M194.277 37.6211L194.25 30.5254H187.975V31.9746H192.691L192.678 37.1016C192.413 37.4479 192.099 37.735 191.734 37.9629C191.379 38.1816 190.992 38.3594 190.572 38.4961C190.162 38.6237 189.734 38.7148 189.287 38.7695C188.85 38.8151 188.426 38.8333 188.016 38.8242C187.368 38.8151 186.781 38.7057 186.252 38.4961C185.732 38.2773 185.272 37.9857 184.871 37.6211C184.461 37.2474 184.11 36.819 183.818 36.3359C183.527 35.8438 183.285 35.3242 183.094 34.7773C182.902 34.2214 182.761 33.6517 182.67 33.0684C182.579 32.485 182.529 31.9154 182.52 31.3594V28.5566C182.52 28.0189 182.561 27.4674 182.643 26.9023C182.734 26.3281 182.87 25.7721 183.053 25.2344C183.226 24.6966 183.449 24.1862 183.723 23.7031C183.996 23.2201 184.329 22.8008 184.721 22.4453C185.113 22.0807 185.559 21.7936 186.061 21.584C186.571 21.3743 187.145 21.2695 187.783 21.2695C188.485 21.2695 189.105 21.3789 189.643 21.5977C190.189 21.8164 190.663 22.1217 191.064 22.5137C191.465 22.9056 191.794 23.375 192.049 23.9219C192.313 24.4688 192.509 25.0612 192.637 25.6992H194.25C194.15 24.8242 193.922 24.0267 193.566 23.3066C193.22 22.5866 192.764 21.9668 192.199 21.4473C191.643 20.9277 190.987 20.5267 190.23 20.2441C189.483 19.9616 188.667 19.8203 187.783 19.8203C186.99 19.8203 186.27 19.9434 185.623 20.1895C184.976 20.4264 184.397 20.75 183.887 21.1602C183.376 21.5794 182.934 22.0716 182.561 22.6367C182.187 23.2018 181.877 23.8079 181.631 24.4551C181.385 25.1022 181.198 25.7767 181.07 26.4785C180.952 27.1803 180.888 27.8822 180.879 28.584V31.3594C180.888 32.0794 180.956 32.7949 181.084 33.5059C181.221 34.2168 181.421 34.9004 181.686 35.5566C181.95 36.222 182.278 36.8418 182.67 37.416C183.062 37.9811 183.522 38.4733 184.051 38.8926C184.57 39.3118 185.158 39.6445 185.814 39.8906C186.48 40.1367 187.214 40.2643 188.016 40.2734C188.699 40.2734 189.365 40.2051 190.012 40.0684C190.668 39.9408 191.288 39.7311 191.871 39.4395C192.318 39.2389 192.746 38.9883 193.156 38.6875C193.566 38.3867 193.94 38.0312 194.277 37.6211Z" fill="white"/>
<path d="M208.51 24.9336C207.17 24.9245 206.003 25.2025 205.01 25.7676C204.025 26.3327 203.246 27.1211 202.672 28.1328L202.658 27.4766L202.562 25.207H201.004V40H202.699L202.672 30.5254C202.854 29.8509 203.114 29.2676 203.451 28.7754C203.798 28.2741 204.203 27.8639 204.668 27.5449C205.151 27.1986 205.693 26.9479 206.295 26.793C206.906 26.6289 207.557 26.5469 208.25 26.5469C208.651 26.5469 209.043 26.5697 209.426 26.6152C209.809 26.6608 210.187 26.7246 210.561 26.8066L210.779 25.2207C210.497 25.1296 210.146 25.0612 209.727 25.0156C209.316 24.9609 208.911 24.9336 208.51 24.9336Z" fill="white"/>
<path d="M221.854 40.2734C223.084 40.2734 224.164 40.0319 225.094 39.5488C226.023 39.0658 226.771 38.4323 227.336 37.6484L226.297 36.8555C225.768 37.5117 225.135 38.013 224.396 38.3594C223.658 38.7057 222.833 38.8789 221.922 38.8789C221.129 38.8698 220.409 38.7103 219.762 38.4004C219.115 38.0905 218.559 37.6712 218.094 37.1426C217.638 36.623 217.278 36.026 217.014 35.3516C216.758 34.6771 216.613 33.9479 216.576 33.1641V32.7129H227.65V31.7148C227.65 30.776 227.514 29.8965 227.24 29.0762C226.976 28.2467 226.584 27.5267 226.064 26.916C225.554 26.2962 224.916 25.8132 224.15 25.4668C223.394 25.1113 222.528 24.9336 221.553 24.9336C220.623 24.9336 219.757 25.125 218.955 25.5078C218.162 25.8906 217.469 26.4193 216.877 27.0938C216.275 27.7682 215.801 28.5612 215.455 29.4727C215.118 30.3841 214.949 31.3685 214.949 32.4258V33.0137C214.949 34.0072 215.118 34.946 215.455 35.8301C215.792 36.7051 216.266 37.4753 216.877 38.1406C217.479 38.7969 218.203 39.3164 219.051 39.6992C219.898 40.082 220.833 40.2734 221.854 40.2734ZM221.553 26.3418C222.255 26.3418 222.879 26.4785 223.426 26.752C223.973 27.0163 224.438 27.3717 224.82 27.8184C225.194 28.265 225.486 28.7845 225.695 29.377C225.914 29.9694 226.023 30.5618 226.023 31.1543V31.3047H216.658C216.749 30.5938 216.932 29.9375 217.205 29.3359C217.479 28.7253 217.825 28.2012 218.244 27.7637C218.673 27.3171 219.165 26.9707 219.721 26.7246C220.277 26.4694 220.887 26.3418 221.553 26.3418Z" fill="white"/>
<path d="M231.889 32.4668V32.7539C231.889 33.7201 232.012 34.668 232.258 35.5977C232.504 36.5182 232.882 37.3249 233.393 38.0176C233.876 38.7012 234.477 39.248 235.197 39.6582C235.917 40.0684 236.765 40.2734 237.74 40.2734C238.232 40.2734 238.706 40.2142 239.162 40.0957C239.627 39.9863 240.06 39.8268 240.461 39.6172C240.798 39.444 241.108 39.2389 241.391 39.002C241.682 38.7559 241.938 38.4779 242.156 38.168V39.7949C242.156 40.4967 242.056 41.1348 241.855 41.709C241.664 42.2832 241.386 42.7754 241.021 43.1855C240.639 43.6048 240.174 43.9284 239.627 44.1562C239.089 44.3841 238.469 44.498 237.768 44.498C237.321 44.498 236.893 44.4388 236.482 44.3203C236.081 44.2109 235.699 44.0469 235.334 43.8281C235.033 43.6641 234.737 43.459 234.445 43.2129C234.163 42.9668 233.889 42.6842 233.625 42.3652L232.709 43.3633C233.001 43.7643 233.333 44.1107 233.707 44.4023C234.09 44.7031 234.486 44.9538 234.896 45.1543C235.38 45.4004 235.876 45.5827 236.387 45.7012C236.897 45.8288 237.394 45.8926 237.877 45.8926C238.788 45.8926 239.609 45.7422 240.338 45.4414C241.067 45.1406 241.687 44.7168 242.197 44.1699C242.708 43.6322 243.1 42.985 243.373 42.2285C243.656 41.4811 243.797 40.6517 243.797 39.7402V25.207H242.279L242.211 27.2715C242.001 26.9525 241.76 26.6608 241.486 26.3965C241.222 26.1322 240.93 25.9043 240.611 25.7129C240.21 25.4577 239.768 25.2663 239.285 25.1387C238.811 25.002 238.305 24.9336 237.768 24.9336C236.738 24.9336 235.849 25.1523 235.102 25.5898C234.363 26.0273 233.757 26.6016 233.283 27.3125C232.809 28.0143 232.458 28.8073 232.23 29.6914C232.003 30.5755 231.889 31.5007 231.889 32.4668ZM233.529 32.7539V32.4668C233.529 31.7376 233.607 31.0176 233.762 30.3066C233.917 29.5957 234.163 28.9577 234.5 28.3926C234.855 27.8001 235.325 27.3171 235.908 26.9434C236.492 26.5605 237.216 26.3691 238.082 26.3691C238.565 26.3691 239.016 26.4421 239.436 26.5879C239.864 26.7246 240.251 26.9206 240.598 27.1758C240.944 27.431 241.249 27.7318 241.514 28.0781C241.778 28.4245 241.992 28.8118 242.156 29.2402V36.1855C241.992 36.5957 241.769 36.9648 241.486 37.293C241.213 37.6211 240.898 37.8991 240.543 38.127C240.188 38.3548 239.8 38.528 239.381 38.6465C238.962 38.765 238.52 38.8242 238.055 38.8242C237.253 38.8242 236.564 38.6602 235.99 38.332C235.416 37.9948 234.956 37.5482 234.609 36.9922C234.236 36.4271 233.962 35.7708 233.789 35.0234C233.625 34.2669 233.538 33.5104 233.529 32.7539Z" fill="white"/>
<path d="M248.705 32.4668V32.7539C248.705 33.7201 248.828 34.668 249.074 35.5977C249.32 36.5182 249.699 37.3249 250.209 38.0176C250.692 38.7012 251.294 39.248 252.014 39.6582C252.734 40.0684 253.581 40.2734 254.557 40.2734C255.049 40.2734 255.523 40.2142 255.979 40.0957C256.443 39.9863 256.876 39.8268 257.277 39.6172C257.615 39.444 257.924 39.2389 258.207 39.002C258.499 38.7559 258.754 38.4779 258.973 38.168V39.7949C258.973 40.4967 258.872 41.1348 258.672 41.709C258.48 42.2832 258.202 42.7754 257.838 43.1855C257.455 43.6048 256.99 43.9284 256.443 44.1562C255.906 44.3841 255.286 44.498 254.584 44.498C254.137 44.498 253.709 44.4388 253.299 44.3203C252.898 44.2109 252.515 44.0469 252.15 43.8281C251.85 43.6641 251.553 43.459 251.262 43.2129C250.979 42.9668 250.706 42.6842 250.441 42.3652L249.525 43.3633C249.817 43.7643 250.15 44.1107 250.523 44.4023C250.906 44.7031 251.303 44.9538 251.713 45.1543C252.196 45.4004 252.693 45.5827 253.203 45.7012C253.714 45.8288 254.21 45.8926 254.693 45.8926C255.605 45.8926 256.425 45.7422 257.154 45.4414C257.883 45.1406 258.503 44.7168 259.014 44.1699C259.524 43.6322 259.916 42.985 260.189 42.2285C260.472 41.4811 260.613 40.6517 260.613 39.7402V25.207H259.096L259.027 27.2715C258.818 26.9525 258.576 26.6608 258.303 26.3965C258.038 26.1322 257.747 25.9043 257.428 25.7129C257.027 25.4577 256.585 25.2663 256.102 25.1387C255.628 25.002 255.122 24.9336 254.584 24.9336C253.554 24.9336 252.665 25.1523 251.918 25.5898C251.18 26.0273 250.574 26.6016 250.1 27.3125C249.626 28.0143 249.275 28.8073 249.047 29.6914C248.819 30.5755 248.705 31.5007 248.705 32.4668ZM250.346 32.7539V32.4668C250.346 31.7376 250.423 31.0176 250.578 30.3066C250.733 29.5957 250.979 28.9577 251.316 28.3926C251.672 27.8001 252.141 27.3171 252.725 26.9434C253.308 26.5605 254.033 26.3691 254.898 26.3691C255.382 26.3691 255.833 26.4421 256.252 26.5879C256.68 26.7246 257.068 26.9206 257.414 27.1758C257.76 27.431 258.066 27.7318 258.33 28.0781C258.594 28.4245 258.809 28.8118 258.973 29.2402V36.1855C258.809 36.5957 258.585 36.9648 258.303 37.293C258.029 37.6211 257.715 37.8991 257.359 38.127C257.004 38.3548 256.617 38.528 256.197 38.6465C255.778 38.765 255.336 38.8242 254.871 38.8242C254.069 38.8242 253.381 38.6602 252.807 38.332C252.232 37.9948 251.772 37.5482 251.426 36.9922C251.052 36.4271 250.779 35.7708 250.605 35.0234C250.441 34.2669 250.355 33.5104 250.346 32.7539Z" fill="white"/>
<path d="M55.94 29.5334H63.1616V42.8949C61.2052 44.2855 59.0277 45.3353 56.7213 45.9999C54.3315 46.7097 51.8524 47.074 49.3594 47.0817C46.0436 47.1356 42.7644 46.3828 39.8041 44.8881C37.0711 43.5151 34.7698 41.4148 33.1534 38.8184C31.5671 36.1611 30.7296 33.124 30.7296 30.0292C30.7296 26.9345 31.5671 23.8974 33.1534 21.2401C34.7891 18.6565 37.1084 16.5764 39.8541 15.2304C42.8531 13.7448 46.1633 12.9962 49.5097 13.0469C52.291 13.0068 55.0545 13.4963 57.6528 14.4892C60.0028 15.4015 62.1058 16.8527 63.7927 18.726L58.7245 23.2433C57.5908 22.047 56.2212 21.0991 54.7023 20.4595C53.1834 19.8198 51.5482 19.5024 49.9003 19.5273C47.8957 19.4978 45.9134 19.9513 44.121 20.8495C42.4727 21.687 41.0995 22.9803 40.1646 24.5755C39.2387 26.2531 38.753 28.1381 38.753 30.0543C38.753 31.9705 39.2387 33.8554 40.1646 35.5331C41.0961 37.1158 42.4483 38.4091 44.0709 39.2691C45.84 40.1843 47.8087 40.6455 49.8001 40.6113C51.9312 40.6469 54.0387 40.1622 55.94 39.199V29.5334Z" fill="white"/>
<mask id="mask0" mask-type="alpha" maskUnits="userSpaceOnUse" x="0" y="-1" width="34" height="62">
<path fill-rule="evenodd" clip-rule="evenodd" d="M13.5 30.0894L30.5497 13.0888C34.1091 9.53966 34.1091 3.7745 30.5497 0.225367C30.2458 -0.0776047 29.7541 -0.0776044 29.4503 0.225367L1.63051 27.965C0.454849 29.1372 0.45485 31.0415 1.63051 32.2137L6.46877 37.038C6.47177 37.0411 6.47478 37.044 6.47779 37.0471L6.49999 37.0692L30.5 61C34.3627 57.1484 34.3627 50.892 30.5 47.0404L13.5 30.0894Z" fill="white"/>
</mask>
<g mask="url(#mask0)">
<path d="M6.47778 37.047L29.9503 60.4519C30.2541 60.7549 30.7458 60.7549 31.0497 60.4519C34.6091 56.9028 34.6091 51.1376 31.0497 47.5885L7.52219 24.1288C7.23354 23.841 6.76643 23.841 6.47778 24.1288C2.90322 27.6931 2.90322 33.4828 6.47778 37.047Z" fill="white"/>
<g filter="url(#filter0_d)">
<path d="M30.5497 13.0888L6.49998 37.0692L1.6305 32.2137C0.454847 31.0415 0.454846 29.1372 1.6305 27.965L29.4503 0.225363C29.7541 -0.0776093 30.2458 -0.0776096 30.5497 0.225362C34.1091 3.77449 34.1091 9.53965 30.5497 13.0888Z" fill="white"/>
<path d="M30.5497 13.0888L6.49998 37.0692L1.6305 32.2137C0.454847 31.0415 0.454846 29.1372 1.6305 27.965L29.4503 0.225363C29.7541 -0.0776093 30.2458 -0.0776096 30.5497 0.225362C34.1091 3.77449 34.1091 9.53965 30.5497 13.0888Z" stroke="black"/>
</g>
</g>
<mask id="mask1" mask-type="alpha" maskUnits="userSpaceOnUse" x="64" y="-1" width="33" height="62">
<path fill-rule="evenodd" clip-rule="evenodd" d="M83.8995 30.0893L66.8498 13.0887C63.2904 9.5396 63.2904 3.77444 66.8498 0.225307C67.1536 -0.0776656 67.6454 -0.0776658 67.9492 0.225307L95.769 27.9649C96.9446 29.1372 96.9446 31.0414 95.769 32.2137L90.9241 37.0446C90.9233 37.0454 90.9225 37.0462 90.9217 37.047L90.8995 37.0691L66.8995 61C63.0368 57.1484 63.0368 50.8919 66.8995 47.0403L83.8995 30.0893Z" fill="white"/>
</mask>
<g mask="url(#mask1)">
<path d="M90.9217 37.047L67.4492 60.4519C67.1454 60.7548 66.6537 60.7548 66.3498 60.4519C62.7904 56.9027 62.7904 51.1376 66.3498 47.5884L89.8773 24.1287C90.166 23.8409 90.6331 23.8409 90.9217 24.1287C94.4963 27.693 94.4963 33.4827 90.9217 37.047Z" fill="white"/>
<g filter="url(#filter1_d)">
<path d="M66.8498 13.0887L90.8995 37.0691L95.769 32.2137C96.9446 31.0414 96.9446 29.1372 95.769 27.9649L67.9492 0.225302C67.6454 -0.07767 67.1537 -0.0776698 66.8498 0.225302C63.2904 3.77443 63.2904 9.5396 66.8498 13.0887Z" fill="white"/>
<path d="M66.8498 13.0887L90.8995 37.0691L95.769 32.2137C96.9446 31.0414 96.9446 29.1372 95.769 27.9649L67.9492 0.225302C67.6454 -0.07767 67.1537 -0.0776698 66.8498 0.225302C63.2904 3.77443 63.2904 9.5396 66.8498 13.0887Z" stroke="black"/>
</g>
</g>
</g>
<defs>
<filter id="filter0_d" x="-3.25124" y="-0.00186157" width="40.4705" height="45.071" filterUnits="userSpaceOnUse" color-interpolation-filters="sRGB">
<feFlood flood-opacity="0" result="BackgroundImageFix"/>
<feColorMatrix in="SourceAlpha" type="matrix" values="0 0 0 0 0 0 0 0 0 0 0 0 0 0 0 0 0 0 127 0"/>
<feOffset dy="4"/>
<feGaussianBlur stdDeviation="2"/>
<feColorMatrix type="matrix" values="0 0 0 0 0 0 0 0 0 0 0 0 0 0 0 0 0 0 0.25 0"/>
<feBlend mode="normal" in2="BackgroundImageFix" result="effect1_dropShadow"/>
<feBlend mode="normal" in="SourceGraphic" in2="effect1_dropShadow" result="shape"/>
</filter>
<filter id="filter1_d" x="60.1803" y="-0.00192261" width="40.4705" height="45.0711" filterUnits="userSpaceOnUse" color-interpolation-filters="sRGB">
<feFlood flood-opacity="0" result="BackgroundImageFix"/>
<feColorMatrix in="SourceAlpha" type="matrix" values="0 0 0 0 0 0 0 0 0 0 0 0 0 0 0 0 0 0 127 0"/>
<feOffset dy="4"/>
<feGaussianBlur stdDeviation="2"/>
<feColorMatrix type="matrix" values="0 0 0 0 0 0 0 0 0 0 0 0 0 0 0 0 0 0 0.25 0"/>
<feBlend mode="normal" in2="BackgroundImageFix" result="effect1_dropShadow"/>
<feBlend mode="normal" in="SourceGraphic" in2="effect1_dropShadow" result="shape"/>
</filter>
<clipPath id="clip0">
<rect width="261" height="61" fill="white"/>
</clipPath>
</defs>
</svg>
