<svg width="100" height="28" xmlns="http://www.w3.org/2000/svg"><g fill-rule="nonzero" fill="none"><g fill="#353128"><path d="M95.636 17.74c-.072-.532-.509-.836-.727-1.064-.29-.152-.654-.228-1.09-.228-.946 0-1.819.304-1.819.836 0 .38.218.608.945.684l1.891.152c.8.076 1.237.304 1.673.532.582.304.873.988.873 1.672 0 .836-.364 1.444-1.018 1.824-.582.304-1.31.456-2.4.456-1.31 0-2.255-.304-2.837-.836-.436-.456-.582-.912-.654-1.824h1.236c.073.456.146.684.436.912.364.304 1.237.456 1.891.456 1.019 0 1.819-.304 1.819-.912 0-.456-.51-.684-1.237-.76l-1.818-.228c-1.382-.152-2.182-.836-2.182-1.976 0-1.444 1.237-2.356 3.2-2.356 1.018 0 1.891.228 2.473.684.727.532.727 1.368.727 1.9h-1.382v.076z"/><path d="M98.91 13.56l-6.4-3.876c-.437-.228-.946-.304-1.383 0l-6.4 3.876c-.436.228-.727.76-.727 1.292v7.752c0 .532.29.988.727 1.292l6.4 3.876c.437.228.946.304 1.382 0l6.4-3.876c.436-.228.727-.76.727-1.292v-7.752c0-.532-.29-.988-.727-1.292zm-.51 9.196l-6.618 3.952-3.055-1.9c.51-.304.8-.912.873-1.52v-8.132h-1.31v7.676c0 .608-.435 1.064-1.017 1.064-.146 0-.291 0-.364-.076h-.073l-1.672-.988v-7.98l6.618-3.952 6.618 4.028v7.828z"/></g><path d="M20.942 22.627v-7.568c0-.53.299-.983.746-1.21l6.484-3.784a1.557 1.557 0 0 1 1.416 0l6.41 3.784c.446.227.67.756.67 1.286v7.568c0 .53-.298.983-.745 1.21l-6.484 3.784a1.557 1.557 0 0 1-1.416 0l-6.41-3.783c-.372-.303-.67-.757-.67-1.287zM69.311 19.676v-1.438c0-.076.075-.227.15-.227l1.266-.757a.224.224 0 0 1 .298 0l1.267.757c.075.075.15.151.15.227v1.438c0 .075-.075.227-.15.227l-1.267.756a.224.224 0 0 1-.298 0l-1.267-.756c-.074-.076-.149-.152-.149-.227z" fill="#8CC644"/><path d="M57.089 2.346l-4.1-2.27c-.223-.152-.521.075-.521.302v10.67c0 .152-.224.303-.373.303l-.223-.075-1.267-.757a1.557 1.557 0 0 0-1.416 0l-6.335 3.708c-.447.227-.671.681-.671 1.21v7.417c0 .53.298.984.67 1.21l6.261 3.709c.447.227.969.227 1.416 0l6.335-3.708c.447-.227.67-.681.67-1.21V3.177c.075-.378-.148-.68-.446-.832zm-4.621 18.238l-2.609 1.513-2.534-1.513v-3.027l2.609-1.514 2.534 1.514v3.027zM0 25.654V14.908c0-.227.15-.454.373-.605l7.229-4.087a1.02 1.02 0 0 1 .67 0l7.08 4.087c.224.151.373.378.373.605v10.746c0 .227-.223.378-.447.303l-4.397-2.498c-.223-.075-.298-.302-.298-.53v-4.918c0-.227-.149-.454-.298-.606l-2.087-1.21c-.149-.076-.373-.076-.596 0l-2.012 1.21c-.224.152-.298.379-.298.606v4.843c0 .227-.15.454-.299.53L.522 25.805c-.298.227-.522.076-.522-.15zM63.424 14.303l7.005-4.011c.224-.151.522-.151.82 0l7.08 4.01a.797.797 0 0 1 .373.682v1.967c0 .303-.15.606-.447.681l-4.472 2.498c-.224.075-.373-.076-.373-.227v-2.044c0-.227-.074-.378-.298-.53L71.1 16.12c-.224-.151-.447-.151-.596 0l-2.012 1.21c-.15.076-.299.303-.299.53v2.27c0 .228.15.455.299.53l7.005 4.163c.15.075.15.378 0 .454L71.1 27.773c-.224.076-.447.076-.596 0l-7.08-4.01c-.224-.152-.448-.455-.448-.682v-8.097c0-.303.15-.606.448-.681z" fill="#353128"/></g></svg>