<svg width="100" height="89" xmlns="http://www.w3.org/2000/svg"><g fill="#61DAFB" fill-rule="nonzero"><path d="M58 45c0 4.97-3.806 9-8.5 9S41 49.97 41 45c0-2.387.896-4.676 2.49-6.364C45.084 36.948 47.246 36 49.5 36s4.416.948 6.01 2.636C57.104 40.324 58 42.613 58 45z"/><path d="M31.79 54.431C25.175 42.994 20.723 30.98 19.414 21.03c-1.309-9.95.633-17.02 5.398-19.654 9.922-5.486 29.132 9.372 42.907 33.187 6.616 11.437 11.068 23.452 12.377 33.402 1.308 9.95-.633 17.02-5.398 19.654-9.922 5.486-29.132-9.372-42.908-33.187zm3.896-2.047c6.04 10.442 13.322 19.638 20.245 25.565 6.922 5.927 12.917 8.099 16.667 6.039 3.75-2.06 4.946-8.183 3.327-17.022-1.62-8.84-5.922-19.672-11.962-30.114S50.64 17.214 43.718 11.287C36.795 5.36 30.8 3.187 27.05 5.247c-3.75 2.06-4.947 8.183-3.328 17.023 1.62 8.84 5.923 19.672 11.963 30.114z"/><path d="M32.274 33.949C38.889 22.512 47.088 12.656 55.067 6.55 63.046.444 70.15-1.413 74.819 1.388c4.668 2.801 6.517 10.031 5.14 20.099-1.376 10.067-5.866 22.148-12.481 33.585-6.616 11.437-14.815 21.292-22.793 27.398-7.98 6.107-15.084 7.963-19.752 5.162-4.669-2.801-6.518-10.03-5.141-20.098 1.377-10.068 5.866-22.149 12.482-33.585zm3.724 2.343c-6.04 10.442-10.378 21.335-12.06 30.282-1.68 8.947-.568 15.215 3.094 17.426 3.662 2.212 9.573.186 16.433-5.634 6.86-5.82 14.107-14.955 20.147-25.397 6.04-10.442 10.378-21.335 12.06-30.282 1.68-8.947.568-15.215-3.094-17.427-3.661-2.211-9.572-.185-16.433 5.635-6.86 5.82-14.107 14.955-20.147 25.397z"/><path d="M50.365 24.076c13.23 0 25.882 2.159 35.17 6.003 9.287 3.843 14.45 9.057 14.353 14.493-.201 11.319-22.699 20.495-50.25 20.495-27.55 0-49.723-9.176-49.523-20.495.096-5.436 5.444-10.65 14.868-14.493 9.424-3.844 22.151-6.003 35.382-6.003zm-.171 4.39c-12.08 0-23.7 1.697-32.304 4.717C9.286 36.203 4.403 40.3 4.316 44.571c-.089 4.27 4.625 8.367 13.105 11.387 8.479 3.02 20.03 4.717 32.109 4.717 12.08 0 23.7-1.697 32.304-4.717 8.604-3.02 13.487-7.116 13.574-11.387.088-4.271-4.625-8.367-13.105-11.388-8.48-3.02-20.03-4.716-32.11-4.717z"/></g></svg>