<svg width="99" height="74" xmlns="http://www.w3.org/2000/svg"><path d="M46.602 43.08c1.329.222 1.92.96 1.624 2.288-.812 3.173-1.771 6.272-2.362 9.52-.147.811-.221 1.549-.074 2.435.443-.074.517-.443.665-.738 2.657-5.018 4.797-10.258 7.086-15.423.885-1.993 1.55-3.912 1.993-5.978.147-.516.442-.812.96-.96 1.328-.368 2.804-.59 4.206-.368 1.181.221 1.55.738 1.108 1.919-.886 2.287-1.181 4.649-.739 7.084.148.96.517 1.845.96 2.73.221.443.443.517.738.074 2.14-3.911 4.724-7.6 5.831-12.028.517-2.362.665-2.436 3.322-2.657.664 0 1.255-.074 1.919 0 1.255.148 1.624.738 1.18 1.919-.811 2.287-1.18 4.575-.737 7.01.295 1.55 1.107 2.878 1.771 4.206.222.443.517.37.886.222a20.037 20.037 0 0 1 7.16-1.771c5.462-.222 10.26 1.107 13.434 5.977 1.55 2.435 2.066 5.092.59 7.822-.812 1.476-2.067 2.51-3.617 3.1-.369.147-.812.295-1.033-.148-.221-.443.221-.59.443-.812 3.764-2.804 3.764-6.936 0-9.814-2.14-1.624-4.503-2.362-7.16-2.583-2.879-.295-5.757-.222-8.562.812-.59.22-.738.442-.517 1.033 1.624 4.501-.369 7.158-3.838 9.445-1.107.738-2.288 1.181-3.543 1.55-2.583.738-4.134-.664-3.617-3.32.443-2.436 1.772-4.428 3.396-6.273.442-.443.885-.96 1.328-1.329.37-.295.812-.516.886-.885 0-.295-1.329-1.402-2.731-7.306-.443.812-.886 1.624-1.403 2.51-1.18 2.14-4.06 6.715-4.133 7.01-.074.295 0 .59.148.885.369.886.59 1.845.664 2.804.369 3.616-1.329 6.052-4.429 7.675-1.919.96-3.912 1.624-6.052 1.55-.886 0-1.698-.222-2.141-1.033-.369-.812-.074-1.55.443-2.214 1.624-1.993 3.321-3.985 4.945-6.051.96-1.181 1.329-1.698 1.329-2.288 0-.517-1.698-2.583-2.805-7.896a231.74 231.74 0 0 1-1.771 4.133c-1.993 4.575-4.282 9.002-6.717 13.356-.517.96-1.181 1.845-2.067 2.51-1.772 1.549-3.69.959-4.355-1.329-.369-1.328-.517-2.73-.295-4.132 0 0 .074-.665 0-.738-.96 2.066-1.772 4.058-2.879 5.977-.886 1.476-1.993 2.583-3.912 2.361-.96-.073-1.698-.442-2.288-1.18-1.55-1.993-2.214-4.28-2.51-6.79-.295-2.582.222-5.165.812-7.674.074-.295.222-.517.148-.96-1.55.886-3.1 1.845-4.65 2.731-.443.295-.296.59-.222.96 1.772 5.46 1.107 10.626-2.214 15.349-2.436 3.468-5.831 5.608-10.039 6.42-.221.073-.516.147-.738.221H8.958c-.074-.074-.147-.074-.295-.148-3.395-.811-5.093-2.878-5.167-6.346-.148-3.763 1.55-6.641 4.207-9.077 3.248-2.951 6.939-5.165 10.777-7.158 1.033-.516 1.033-.59.074-1.328l-5.536-3.985c-2.805-1.918-5.536-3.985-7.898-6.42C2.832 37.25 1.134 34.52.248 31.347c-1.55-7.158 4.503-12.25 8.563-15.94 3.469-3.247 7.455-5.903 11.588-8.117C26.156 4.264 32.061 1.682 38.557.5c.96-.147 8.783-1.549 15.87 1.108 2.73 1.107 5.24 2.656 6.642 5.387 1.624 3.025 1.55 6.199.591 9.372-1.92 6.125-5.905 10.552-11.367 13.652-4.207 2.361-8.858 3.542-13.655 3.91-3.027.222-6.053.148-8.858-1.032-1.624-.665-3.026-1.698-4.06-3.1-.369-.443-.59-.96-.738-1.55-.073-.368-.147-.737.222-.959.369-.221.59.074.812.295 2.583 2.657 5.831 3.247 9.3 2.952 6.053-.443 11.589-2.435 16.386-6.199 2.584-1.992 4.65-4.353 6.127-7.305.59-1.255.96-2.583 1.033-3.985.222-2.509-1.107-4.575-3.617-5.682-3.026-1.328-6.2-1.55-9.448-1.255C32.8 7.142 23.5 12.087 14.937 18.654A22.289 22.289 0 0 0 9.4 24.853c-2.362 4.723-1.845 9.372 1.993 13.357 2.214 2.361 4.872 4.206 7.455 6.199 1.402 1.106 2.879 2.287 4.133 3.615.37.443.739.443 1.255.148 2.805-1.55 5.684-3.1 8.489-4.649.442-.221.664-.517.96-.886 1.623-1.918 3.395-3.615 5.683-4.649.516-.221 1.033-.442 1.55-.516 2.362-.59 4.06.59 4.28 3.025v.886s0 1.623-.147 2.509c.443-1.033 1.55-.812 1.55-.812zM22.687 55.994c.074-.738-.074-1.697-.295-2.656-.074-.37-.221-.59-.664-.296-3.396 2.067-6.791 4.133-9.448 7.158-1.477 1.698-2.436 3.616-2.215 5.978.074 1.18.812 1.918 1.993 2.066.517.074.96 0 1.403-.074 5.167-1.18 9.226-6.42 9.226-12.176zm11.884-1.328c0 .738 0 1.402.148 2.14.147.738.073 1.771.96 1.919.811.147 1.106-.886 1.402-1.476 1.402-2.73 2.362-5.609 3.469-8.413.738-1.918 1.402-3.91 1.771-5.977.074-.443.222-.96-.147-1.255-.443-.369-.886-.147-1.329.074-.59.222-1.033.59-1.476 1.033-3.1 3.321-4.577 7.38-4.798 11.955zm39.416-4.059v-.885c-.074-.517-.222-.738-.739-.295-1.623 1.55-2.583 3.394-3.173 5.534-.074.148-.148.37.073.517.222.147.443 0 .59-.074 2.068-.812 3.249-2.583 3.249-4.797zM56.05 58.872c1.993-.295 5.093-3.542 4.503-5.24-1.403 1.772-2.805 3.47-4.503 5.24z" fill="#C69" fill-rule="nonzero"/></svg>