<svg width="32" height="32" xmlns="http://www.w3.org/2000/svg"><path d="M16 0C7.2 0 0 7.2 0 16s7.2 16 16 16 16-7.2 16-16S24.881 0 16 0zm7.363 23.119c-.319.481-.881.637-1.363.319-3.762-2.319-8.481-2.8-14.081-1.519-.563.163-1.037-.238-1.2-.719-.162-.563.237-1.038.719-1.2 6.081-1.363 11.363-.8 15.519 1.762.563.238.644.875.406 1.356v.001zm1.918-4.4c-.4.563-1.119.8-1.681.4-4.319-2.637-10.881-3.438-15.919-1.837-.638.163-1.362-.163-1.519-.8-.162-.637.162-1.363.8-1.519 5.838-1.762 13.037-.881 18 2.163.475.238.719 1.038.319 1.594v-.001zm.157-4.481c-5.119-3.037-13.681-3.363-18.563-1.838-.8.238-1.6-.238-1.838-.963-.237-.8.237-1.6.963-1.838 5.681-1.681 15.038-1.363 20.962 2.162.719.4.962 1.363.563 2.081-.406.556-1.363.794-2.087.394v.002z" fill="#000" fill-rule="nonzero"/></svg>