<?xml version="1.0" encoding="UTF-8"?>
<svg width="99px" height="80px" viewBox="0 0 99 80" version="1.1" xmlns="http://www.w3.org/2000/svg" xmlns:xlink="http://www.w3.org/1999/xlink">
    <!-- Generator: Sketch 51.3 (57544) - http://www.bohemiancoding.com/sketch -->
    <title>gatsby</title>
    <desc>Created with Sketch.</desc>
    <defs></defs>
    <g id="Welcome" stroke="none" stroke-width="1" fill="none" fill-rule="evenodd">
        <g id="Desktop-HD" transform="translate(-926.000000, -1054.000000)" fill-rule="nonzero">
            <g id="Group-3" transform="translate(0.000000, 587.000000)">
                <g id="gatsby" transform="translate(926.000000, 467.000000)">
                    <g id="Group" transform="translate(0.000000, 48.000000)" fill="#000000">
                        <path d="M36.0869565,10.0434783 L40.1449275,10.0434783 L40.1449275,24.3913043 L36.0869565,24.3913043 L36.0869565,22.526087 C34.6376812,24.6782609 32.7536232,24.8217391 31.5942029,24.8217391 C27.1014493,24.8217391 24.2028986,21.3782609 24.2028986,17.2173913 C24.2028986,12.9130435 27.1014493,9.61304348 31.3043478,9.61304348 C32.4637681,9.61304348 34.6376812,9.75652174 35.942029,11.9086957 L35.942029,10.0434783 L36.0869565,10.0434783 Z M28.5507246,17.2173913 C28.5507246,19.5130435 30.1449275,21.2347826 32.6086957,21.2347826 C34.9275362,21.2347826 36.6666667,19.5130435 36.6666667,17.2173913 C36.6666667,14.9217391 35.0724638,13.2 32.6086957,13.2 C30.2898551,13.2 28.5507246,14.9217391 28.5507246,17.2173913 Z" id="Shape"></path>
                        <polygon id="Shape" points="48.115942 13.4869565 48.115942 24.3913043 44.057971 24.3913043 44.057971 13.4869565 42.4637681 13.4869565 42.4637681 10.0434783 44.057971 10.0434783 44.057971 5.16521739 48.115942 5.16521739 48.115942 10.0434783 50.8695652 10.0434783 50.8695652 13.4869565"></polygon>
                        <path d="M60.4347826,13.4869565 C59.4202899,12.626087 58.5507246,12.4826087 58.115942,12.4826087 C57.1014493,12.4826087 56.5217391,12.9130435 56.5217391,13.6304348 C56.5217391,14.0608696 56.6666667,14.4913043 57.826087,14.9217391 L58.8405797,15.2086957 C60,15.6391304 61.7391304,16.0695652 62.4637681,17.2173913 C62.8985507,17.7913043 63.1884058,18.6521739 63.1884058,19.6565217 C63.1884058,20.9478261 62.7536232,22.2391304 61.5942029,23.2434783 C60.4347826,24.2478261 58.9855072,24.8217391 57.2463768,24.8217391 C54.2028986,24.8217391 52.6086957,23.3869565 51.5942029,22.3826087 L53.7681159,19.9434783 C54.6376812,20.8043478 55.7971014,21.6652174 56.9565217,21.6652174 C58.115942,21.6652174 58.9855072,21.0913043 58.9855072,20.0869565 C58.9855072,19.226087 58.2608696,18.7956522 57.6811594,18.6521739 L56.8115942,18.3652174 C55.7971014,17.9347826 54.6376812,17.5043478 53.7681159,16.6434783 C53.0434783,15.926087 52.6086957,15.0652174 52.6086957,13.9173913 C52.6086957,12.4826087 53.3333333,11.3347826 54.057971,10.6173913 C55.2173913,9.75652174 56.6666667,9.61304348 57.826087,9.61304348 C58.8405797,9.61304348 60.5797101,9.75652174 62.4637681,11.1913043 L60.4347826,13.4869565 Z" id="Shape"></path>
                        <path d="M69.2753623,11.9086957 C70.7246377,9.9 72.7536232,9.61304348 73.9130435,9.61304348 C78.115942,9.61304348 81.0144928,12.9130435 81.0144928,17.2173913 C81.0144928,21.5217391 78.115942,24.8217391 73.7681159,24.8217391 C72.8985507,24.8217391 70.7246377,24.6782609 69.1304348,22.526087 L69.1304348,24.3913043 L65.2173913,24.3913043 L65.2173913,0.286956522 L69.2753623,0.286956522 L69.2753623,11.9086957 Z M68.8405797,17.2173913 C68.8405797,19.5130435 70.4347826,21.2347826 72.8985507,21.2347826 C75.2173913,21.2347826 76.9565217,19.5130435 76.9565217,17.2173913 C76.9565217,14.9217391 75.3623188,13.2 72.8985507,13.2 C70.4347826,13.2 68.8405797,14.9217391 68.8405797,17.2173913 Z" id="Shape"></path>
                        <polygon id="Shape" points="87.6811594 22.2391304 80.7246377 10.0434783 85.5072464 10.0434783 90 18.2217391 94.057971 10.0434783 98.6956522 10.0434783 87.1014493 31.9956522 82.4637681 31.9956522"></polygon>
                        <path d="M23.1884058,12.4826087 L19.1304348,12.4826087 C19.1304348,12.4826087 13.0434783,12.4826087 13.0434783,12.4826087 L13.0434783,16.5 L18.4057971,16.5 C17.5362319,19.226087 15.5072464,21.0913043 11.7391304,21.0913043 C7.53623188,21.0913043 4.49275362,17.6478261 4.49275362,13.4869565 C4.49275362,9.32608696 7.39130435,5.73913043 11.5942029,5.73913043 C13.9130435,5.73913043 16.2318841,6.88695652 17.6811594,8.75217391 L21.0144928,6.6 C18.8405797,3.58695652 15.3623188,1.86521739 11.5942029,1.86521739 C5.2173913,1.86521739 0,7.03043478 0,13.4869565 C0,19.9434783 4.92753623,25.1086957 11.5942029,25.1086957 C18.2608696,25.1086957 23.1884058,19.9434783 23.1884058,13.4869565 C23.3333333,13.0565217 23.1884058,12.7695652 23.1884058,12.4826087 Z" id="Shape"></path>
                    </g>
                    <g id="Group" transform="translate(30.000000, 0.000000)">
                        <g transform="translate(4.392857, 4.285714)" fill="#FFFFFF" id="Shape">
                            <path d="M32.2142857,15.7142857 L21.9642857,15.7142857 L21.9642857,18.5714286 L28.9928571,18.5714286 C27.9678571,22.8571429 24.7464286,26.4285714 20.5,27.8571429 L3.66071429,11.4285714 C5.41785714,6.42857143 10.3964286,2.85714286 16.1071429,2.85714286 C20.5,2.85714286 24.4535714,5 26.9428571,8.28571429 L29.1392857,6.42857143 C26.2107143,2.57142857 21.525,0 16.1071429,0 C8.49285714,0 2.05,5.28571429 0.439285714,12.2857143 L19.7678571,31.1428571 C26.7964286,29.4285714 32.2142857,23.1428571 32.2142857,15.7142857 Z"></path>
                            <path d="M0,15.8571429 C0,19.8571429 1.61071429,23.7142857 4.68571429,26.7142857 C7.76071429,29.7142857 11.8607143,31.2857143 15.8142857,31.2857143 L0,15.8571429 Z"></path>
                        </g>
                        <path d="M20.5,0 C9.225,0 0,9 0,20 C0,31 9.225,40 20.5,40 C31.775,40 41,31 41,20 C41,9 31.775,0 20.5,0 Z M9.07857143,31.1428571 C6.00357143,28.1428571 4.39285714,24.1428571 4.39285714,20.2857143 L20.3535714,35.7142857 C16.2535714,35.5714286 12.1535714,34.1428571 9.07857143,31.1428571 Z M24.0142857,35.2857143 L4.83214286,16.5714286 C6.44285714,9.57142857 12.8857143,4.28571429 20.5,4.28571429 C25.9178571,4.28571429 30.6035714,6.85714286 33.5321429,10.7142857 L31.3357143,12.5714286 C28.8464286,9.28571429 24.8928571,7.14285714 20.5,7.14285714 C14.7892857,7.14285714 9.95714286,10.7142857 8.05357143,15.7142857 L24.8928571,32.1428571 C29.1392857,30.7142857 32.3607143,27.1428571 33.3857143,22.8571429 L26.3571429,22.8571429 L26.3571429,20 L36.6071429,20 C36.6071429,27.4285714 31.1892857,33.7142857 24.0142857,35.2857143 Z" id="Shape" fill="#663399"></path>
                    </g>
                </g>
            </g>
        </g>
    </g>
</svg>