<svg width="261" height="61" xmlns="http://www.w3.org/2000/svg"><defs><linearGradient x1="99.994%" y1="49.997%" x2="-.001%" y2="49.997%" id="a"><stop stop-color="#FFF" offset="0%"/><stop stop-color="#2F5D7F" offset="100%"/></linearGradient><linearGradient x1="-.006%" y1="50.002%" x2="100.002%" y2="50.002%" id="b"><stop stop-color="#FFF" offset="0%"/><stop stop-color="#2F5D7F" offset="100%"/></linearGradient></defs><g fill="none" fill-rule="evenodd"><text transform="translate(112 14)" fill="#FFF" font-family="RobotoMonoForPowerline-Light, Roboto Mono Light for Powerline" font-size="28" font-weight="300"><tspan x=".388" y="26">codeGregg</tspan></text><g fill-rule="nonzero"><path d="M13.907 30.45L30.84 47.513a9.186 9.186 0 0 1 2.666 6.476c0 2.43-.959 4.76-2.666 6.476a.756.756 0 0 1-1.082 0L6.953 37.435l6.954-6.985zm-13.38.51l5.887 5.928c.3.3.783.3 1.083 0l23.497-23.677a8.947 8.947 0 0 0 2.593-6.305A8.947 8.947 0 0 0 30.994.602l-.17-.172a.756.756 0 0 0-1.082 0L.527 29.865a.781.781 0 0 0 .016 1.095H.527z" fill="#FFF"/><path d="M13.907 30.45L30.84 47.513a9.186 9.186 0 0 1 2.666 6.476c0 2.43-.959 4.76-2.666 6.476a.756.756 0 0 1-1.082 0L6.095 36.554l7.812-6.104zm-13.364.51l5.888 5.928c.3.3.783.3 1.082 0L31.01 13.211a8.947 8.947 0 0 0 2.594-6.305A8.947 8.947 0 0 0 31.01.602L30.84.43a.756.756 0 0 0-1.082 0L.543 29.865a.781.781 0 0 0 0 1.095z" fill="url(#a)"/><path d="M.63 31.043l6.34 6.393 23.958-24.137c3.503-3.53 3.503-9.254 0-12.785a.883.883 0 0 0-1.244 0L.639 29.78a.89.89 0 0 0-.009 1.262z" fill="#FFF"/><g><path d="M84.18 30.45L67.157 47.513c-3.564 3.578-3.564 9.375 0 12.952a.77.77 0 0 0 1.092 0l22.896-23.03-6.967-6.985zm13.428.51l-5.916 5.928a.761.761 0 0 1-1.088 0L66.992 13.211a8.924 8.924 0 0 1-2.607-6.305c0-2.365.938-4.633 2.607-6.304l.17-.172c.301-.3.787-.3 1.088 0l29.358 29.44c.3.3.3.788 0 1.09z" fill="#FFF"/><path d="M20.18 30.45L3.157 47.513c-3.564 3.578-3.564 9.375 0 12.952a.77.77 0 0 0 1.092 0l23.775-23.911-7.846-6.104zm13.428.51l-5.916 5.928a.761.761 0 0 1-1.088 0L2.992 13.211A8.924 8.924 0 0 1 .385 6.906c0-2.365.938-4.633 2.607-6.304l.17-.172c.301-.3.787-.3 1.088 0l29.358 29.44c.3.3.3.788 0 1.09z" fill="url(#b)" transform="translate(64)"/><path d="M97.52 31.043l-6.374 6.393-24.071-24.137c-3.52-3.53-3.52-9.254 0-12.785a.89.89 0 0 1 1.25 0L97.513 29.78a.887.887 0 0 1 .008 1.262z" fill="#FFF"/></g><path d="M56.164 29.483h7.203v13.335a20.904 20.904 0 0 1-6.424 3.1 25.867 25.867 0 0 1-7.35 1.08c-3.318.05-6.598-.7-9.54-2.183a16.626 16.626 0 0 1-6.643-6.06 17.109 17.109 0 0 1 0-17.51 16.552 16.552 0 0 1 6.695-6.06 20.945 20.945 0 0 1 9.64-2.183c2.78-.04 5.54.451 8.123 1.445A16.076 16.076 0 0 1 64 18.672l-5.06 4.507c-2.252-2.397-5.46-3.748-8.813-3.71a12.41 12.41 0 0 0-5.77 1.328 9.597 9.597 0 0 0-3.942 3.71 11.306 11.306 0 0 0 0 10.94 9.82 9.82 0 0 0 3.916 3.736 11.963 11.963 0 0 0 5.723 1.34 13.127 13.127 0 0 0 6.132-1.411l-.022-9.629z" fill="#FFF"/></g></g></svg>