<svg width="261" height="61" xmlns="http://www.w3.org/2000/svg" xmlns:xlink="http://www.w3.org/1999/xlink" viewBox="0 0 260.58 60.49"><defs><linearGradient id="a" x1="-556.07" y1="350.75" x2="-557.07" y2="350.75" gradientTransform="matrix(33.28 0 0 -60.49 18541.67 21247.9)" gradientUnits="userSpaceOnUse"><stop offset="0" stop-color="#fff"/><stop offset="1" stop-color="#2f5d7f"/></linearGradient><linearGradient id="b" x1="-557.15" y1="350.75" x2="-556.15" y2="350.75" gradientTransform="matrix(33.45 0 0 -60.49 18699.23 21246.13)" xlink:href="#a"/></defs><g data-name="Layer 2"><g data-name="Layer 1"><g style="isolation:isolate" fill="#fff"><path d="M120.72 38.69a5 5 0 0 0 1.56-.24 4.15 4.15 0 0 0 1.32-.69 3.65 3.65 0 0 0 .94-1.09 3.36 3.36 0 0 0 .42-1.44h1.57a4.44 4.44 0 0 1-.55 1.94 5.13 5.13 0 0 1-1.28 1.53 6.09 6.09 0 0 1-1.82 1 6.53 6.53 0 0 1-2.16.36 5.87 5.87 0 0 1-4.84-2.25 7.31 7.31 0 0 1-1.2-2.36 9.47 9.47 0 0 1-.4-2.77v-.58a9.4 9.4 0 0 1 .4-2.76 7.21 7.21 0 0 1 1.2-2.36 6 6 0 0 1 2-1.64 6.09 6.09 0 0 1 2.81-.62 6.5 6.5 0 0 1 2.28.39 5.58 5.58 0 0 1 1.82 1.1 5.18 5.18 0 0 1 1.21 1.67 5.69 5.69 0 0 1 .51 2.12H125a4 4 0 0 0-.39-1.55 4.07 4.07 0 0 0-.9-1.23 3.85 3.85 0 0 0-1.32-.81 4.61 4.61 0 0 0-1.65-.28A4.22 4.22 0 0 0 117 28a5.73 5.73 0 0 0-.84 1.92 9 9 0 0 0-.27 2.18v.58a9 9 0 0 0 .27 2.2 5.56 5.56 0 0 0 .84 1.92 4.4 4.4 0 0 0 1.48 1.36 4.33 4.33 0 0 0 2.24.53zM130.67 32.18a9 9 0 0 1 .47-2.85 7.28 7.28 0 0 1 1.29-2.33 6.31 6.31 0 0 1 9.68 0 7.12 7.12 0 0 1 1.3 2.38 9.25 9.25 0 0 1 .47 2.85v.45a9.26 9.26 0 0 1-.46 2.86 7.34 7.34 0 0 1-1.29 2.37 6.54 6.54 0 0 1-7.62 1.62 6.26 6.26 0 0 1-2.08-1.62 7.34 7.34 0 0 1-1.29-2.37 9 9 0 0 1-.47-2.86zm1.64.45a7.79 7.79 0 0 0 .33 2.27 6.18 6.18 0 0 0 1 1.94 4.65 4.65 0 0 0 1.55 1.34 4.34 4.34 0 0 0 2.14.51 4.29 4.29 0 0 0 2.12-.51 4.65 4.65 0 0 0 1.55-1.34 6.38 6.38 0 0 0 .95-1.94 7.79 7.79 0 0 0 .33-2.27v-.45a7.76 7.76 0 0 0-.33-2.25A6.18 6.18 0 0 0 141 28a4.83 4.83 0 0 0-1.56-1.35 4.7 4.7 0 0 0-4.26 0 4.76 4.76 0 0 0-1.59 1.35 6.16 6.16 0 0 0-1 1.94 7.76 7.76 0 0 0-.33 2.25zM147.83 32.27a10.63 10.63 0 0 1 .37-2.84 7.49 7.49 0 0 1 1.1-2.43 5.62 5.62 0 0 1 1.83-1.67 5.66 5.66 0 0 1 5.11 0 5.3 5.3 0 0 1 1.87 1.67v-8.2h1.63v21h-1.53l-.07-1.93a5.18 5.18 0 0 1-1.92 1.63 5.54 5.54 0 0 1-2.53.57 5.06 5.06 0 0 1-2.56-.63 5.79 5.79 0 0 1-1.83-1.69 7.34 7.34 0 0 1-1.1-2.4 10.5 10.5 0 0 1-.37-2.8zm1.65.28a10.22 10.22 0 0 0 .24 2.2 6.48 6.48 0 0 0 .77 2 4.35 4.35 0 0 0 1.4 1.4 4 4 0 0 0 2.1.53 4.68 4.68 0 0 0 1.32-.18 4.43 4.43 0 0 0 1.15-.51 4.3 4.3 0 0 0 .95-.81 4.87 4.87 0 0 0 .7-1.06v-7.19a4.85 4.85 0 0 0-.68-1.12 4.51 4.51 0 0 0-.92-.88 4.57 4.57 0 0 0-1.15-.57 4.18 4.18 0 0 0-1.34-.21 3.93 3.93 0 0 0-2.12.54 4.39 4.39 0 0 0-1.4 1.41 6.19 6.19 0 0 0-.78 2 10.32 10.32 0 0 0-.24 2.21zM171.44 40.07a6.64 6.64 0 0 1-5-2.13 7.27 7.27 0 0 1-1.41-2.3 8.19 8.19 0 0 1-.51-2.81v-.59a8.69 8.69 0 0 1 .53-3 7.55 7.55 0 0 1 1.4-2.37 6.52 6.52 0 0 1 2.09-1.6 6 6 0 0 1 2.59-.58 6 6 0 0 1 2.61.54 5.47 5.47 0 0 1 1.9 1.45 6.41 6.41 0 0 1 1.18 2.15 8.69 8.69 0 0 1 .42 2.64v1h-11.08v.32a6.66 6.66 0 0 0 .4 2.22 5.65 5.65 0 0 0 1.08 1.86 5.27 5.27 0 0 0 1.68 1.3 5 5 0 0 0 2.19.48 5.55 5.55 0 0 0 2.47-.51 5.08 5.08 0 0 0 1.89-1.5l1 .78a6 6 0 0 1-1 1.06 6.32 6.32 0 0 1-1.25.83 7.68 7.68 0 0 1-1.51.53 7.55 7.55 0 0 1-1.67.23zm-.31-13.94a4.45 4.45 0 0 0-1.84.37 4.57 4.57 0 0 0-1.46 1.05 5.49 5.49 0 0 0-1 1.58 7.29 7.29 0 0 0-.56 2h9.37v-.18a5.79 5.79 0 0 0-.34-1.79 4.91 4.91 0 0 0-.87-1.53 4.24 4.24 0 0 0-1.43-1.09 4.05 4.05 0 0 0-1.87-.41zM194.29 37.43a7.38 7.38 0 0 1-1.3 1.21 7.63 7.63 0 0 1-1.51.82 8.05 8.05 0 0 1-1.68.47 11.56 11.56 0 0 1-1.78.14 6.22 6.22 0 0 1-4-1.37 7 7 0 0 1-1.38-1.49 9.54 9.54 0 0 1-1-1.84 10.84 10.84 0 0 1-.59-2.06 12 12 0 0 1-.22-2.14v-2.79a12.42 12.42 0 0 1 .2-2.09 10.69 10.69 0 0 1 .56-2 9.45 9.45 0 0 1 .93-1.82 6.92 6.92 0 0 1 1.39-1.47 5.93 5.93 0 0 1 3.88-1.35 6.8 6.8 0 0 1 2.46.43 6.24 6.24 0 0 1 2 1.2 6.35 6.35 0 0 1 1.38 1.85 7.1 7.1 0 0 1 .66 2.4h-1.61a7.75 7.75 0 0 0-.59-1.78 4.83 4.83 0 0 0-1-1.41 4.36 4.36 0 0 0-1.41-.92 4.92 4.92 0 0 0-1.85-.34 4.42 4.42 0 0 0-3.07 1.19 5.55 5.55 0 0 0-1 1.25 7.94 7.94 0 0 0-.69 1.54 11.45 11.45 0 0 0-.39 1.66 13.87 13.87 0 0 0-.13 1.66v2.82a11.22 11.22 0 0 0 .16 1.71 9 9 0 0 0 .43 1.7 8.6 8.6 0 0 0 .72 1.57 5.49 5.49 0 0 0 1 1.29 4.49 4.49 0 0 0 1.38.87 4.69 4.69 0 0 0 1.77.34 9.22 9.22 0 0 0 1.27-.06 6.22 6.22 0 0 0 1.28-.28 4.9 4.9 0 0 0 1.16-.54 3.48 3.48 0 0 0 .94-.86v-5.17H188v-1.42h6.28zM208.52 24.73a10.16 10.16 0 0 1 1.23.08 5.33 5.33 0 0 1 1 .21l-.2 1.57c-.38-.08-.77-.14-1.15-.19a9 9 0 0 0-1.18-.07 6.08 6.08 0 0 0-3.52 1 5.19 5.19 0 0 0-2 3v9.47H201V25h1.57l.11 2.57v.3a6.53 6.53 0 0 1 2.39-2.31 6.91 6.91 0 0 1 3.45-.83zM221.85 40.07a6.83 6.83 0 0 1-2.85-.57 6.73 6.73 0 0 1-2.18-1.56 6.92 6.92 0 0 1-1.41-2.3 8.19 8.19 0 0 1-.51-2.81v-.59a8.45 8.45 0 0 1 .53-3 7.55 7.55 0 0 1 1.4-2.37 6.52 6.52 0 0 1 2.09-1.6 5.94 5.94 0 0 1 2.58-.58 6 6 0 0 1 2.62.54 5.47 5.47 0 0 1 1.9 1.45 6.41 6.41 0 0 1 1.18 2.15 8.69 8.69 0 0 1 .42 2.64v1h-11.05v.32a6.66 6.66 0 0 0 .4 2.22 5.65 5.65 0 0 0 1.08 1.86 5.27 5.27 0 0 0 1.68 1.3 4.92 4.92 0 0 0 2.19.48 5.55 5.55 0 0 0 2.47-.51 5.08 5.08 0 0 0 1.89-1.5l1 .78a6.46 6.46 0 0 1-1 1.06 6.32 6.32 0 0 1-1.25.83 7.78 7.78 0 0 1-1.52.53 7.4 7.4 0 0 1-1.66.23zm-.32-13.94a4.44 4.44 0 0 0-1.83.37 4.57 4.57 0 0 0-1.46 1.05 5.49 5.49 0 0 0-1 1.58 7.29 7.29 0 0 0-.56 2H226v-.18a5.78 5.78 0 0 0-.33-1.79 4.93 4.93 0 0 0-.88-1.53 4.2 4.2 0 0 0-1.38-1.08 4.06 4.06 0 0 0-1.88-.42zM231.87 32.27a11.05 11.05 0 0 1 .36-2.84 7.25 7.25 0 0 1 1.08-2.43 5.62 5.62 0 0 1 1.83-1.67 5.3 5.3 0 0 1 2.61-.62 5.23 5.23 0 0 1 2.55.61 5.33 5.33 0 0 1 1.88 1.72l.07-2h1.53v14.5a7.39 7.39 0 0 1-.43 2.49 5.38 5.38 0 0 1-1.18 1.97 5.26 5.26 0 0 1-1.86 1.27 6.43 6.43 0 0 1-2.47.45 6.86 6.86 0 0 1-2.76-.61 7.28 7.28 0 0 1-1.3-.79 5.09 5.09 0 0 1-1.09-1.13l.92-1a5.22 5.22 0 0 0 4.12 2.13 4.81 4.81 0 0 0 1.88-.34A3.75 3.75 0 0 0 241 43a4.27 4.27 0 0 0 .85-1.49 6.35 6.35 0 0 0 .31-1.9v-1.68a5.31 5.31 0 0 1-1.91 1.59 5.6 5.6 0 0 1-2.51.55 5.14 5.14 0 0 1-2.58-.63 5.66 5.66 0 0 1-1.82-1.69 7.54 7.54 0 0 1-1.09-2.4 10.91 10.91 0 0 1-.36-2.8zm1.64.28a10.22 10.22 0 0 0 .24 2.2 6.48 6.48 0 0 0 .77 2 4.35 4.35 0 0 0 1.4 1.4 3.94 3.94 0 0 0 2.1.53 4.8 4.8 0 0 0 1.33-.18 4.47 4.47 0 0 0 1.15-.53 4.68 4.68 0 0 0 .95-.83 4.81 4.81 0 0 0 .69-1.09V29a6.35 6.35 0 0 0-.67-1.13 4.36 4.36 0 0 0-.92-.9 4.29 4.29 0 0 0-1.15-.58 4 4 0 0 0-1.35-.22 3.9 3.9 0 0 0-2.12.54 4.39 4.39 0 0 0-1.4 1.41 6.19 6.19 0 0 0-.78 2 10.32 10.32 0 0 0-.24 2.21zM248.67 32.27a11.05 11.05 0 0 1 .36-2.84 7.68 7.68 0 0 1 1.08-2.43 5.55 5.55 0 0 1 1.89-1.65 5.7 5.7 0 0 1 5.15 0 5.33 5.33 0 0 1 1.85 1.71l.07-2h1.53v14.48a7.65 7.65 0 0 1-.42 2.49A5.55 5.55 0 0 1 259 44a5.18 5.18 0 0 1-1.86 1.27 6.42 6.42 0 0 1-2.46.45 6.6 6.6 0 0 1-1.37-.15 6.47 6.47 0 0 1-1.39-.46 7 7 0 0 1-1.31-.79 5.09 5.09 0 0 1-1.09-1.13l.92-1a5.23 5.23 0 0 0 4.13 2.13 4.8 4.8 0 0 0 1.87-.34 3.59 3.59 0 0 0 1.37-1 4.12 4.12 0 0 0 .85-1.49 6.05 6.05 0 0 0 .31-1.9v-1.66a5.31 5.31 0 0 1-1.97 1.59 5.6 5.6 0 0 1-2.51.55 5.07 5.07 0 0 1-2.57-.63 5.59 5.59 0 0 1-1.83-1.69 7.76 7.76 0 0 1-1.09-2.4 10.91 10.91 0 0 1-.36-2.8zm1.64.28a10.22 10.22 0 0 0 .24 2.2 6.48 6.48 0 0 0 .77 2 4.46 4.46 0 0 0 1.4 1.4 4 4 0 0 0 2.1.53 4.8 4.8 0 0 0 1.33-.18 4.7 4.7 0 0 0 1.16-.53 4.63 4.63 0 0 0 .94-.83 4.21 4.21 0 0 0 .69-1.09V29a5.8 5.8 0 0 0-.67-1.13 4.13 4.13 0 0 0-.92-.9 4.23 4.23 0 0 0-1.14-.58 4 4 0 0 0-1.36-.22 3.93 3.93 0 0 0-2.12.54 4.39 4.39 0 0 0-1.4 1.41 6.19 6.19 0 0 0-.78 2 10.32 10.32 0 0 0-.24 2.21z"/></g><path d="M13.6 30.25l16.93 17.06a9.19 9.19 0 0 1 0 12.95.74.74 0 0 1-.54.23.73.73 0 0 1-.54-.23l-22.81-23zm-13.38.51l5.88 5.93a.77.77 0 0 0 1.09 0L30.68 13a8.94 8.94 0 0 0 0-12.6l-.17-.17A.73.73 0 0 0 30 0a.74.74 0 0 0-.54.23L.22 29.66a.78.78 0 0 0 0 1.1z" fill="#fff"/><path d="M13.6 30.25l16.93 17.06a9.19 9.19 0 0 1 0 12.95.74.74 0 0 1-.54.23.73.73 0 0 1-.54-.23L5.78 36.35zm-13.37.51l5.89 5.93a.76.76 0 0 0 1.08 0L30.7 13a9 9 0 0 0 0-12.6l-.17-.17A.74.74 0 0 0 30 0a.73.73 0 0 0-.54.23L.23 29.66a.78.78 0 0 0 0 1.1z" fill="url(#a)"/><path d="M.32 30.84l6.34 6.39 24-24.13a9.1 9.1 0 0 0 0-12.79.89.89 0 0 0-1.25 0L.33 29.58a.88.88 0 0 0 0 1.26z" fill="#fff"/><g><path d="M83.87 30.25l-17 17.06a9.17 9.17 0 0 0 0 12.95.74.74 0 0 0 .54.23.76.76 0 0 0 .55-.23l22.89-23zm13.43.51l-5.92 5.93a.78.78 0 0 1-.54.23.81.81 0 0 1-.55-.23L66.68 13a8.92 8.92 0 0 1 0-12.6l.17-.17a.77.77 0 0 1 1.09 0L97.3 29.67a.77.77 0 0 1 0 1.09z" fill="#fff"/><path d="M83.87 30.25l-17 17.06a9.17 9.17 0 0 0 0 12.95.74.74 0 0 0 .54.23.76.76 0 0 0 .55-.23l23.75-23.91zm13.43.51l-5.92 5.93a.78.78 0 0 1-.54.23.81.81 0 0 1-.55-.23L66.68 13a8.92 8.92 0 0 1 0-12.6l.17-.17a.77.77 0 0 1 1.09 0L97.3 29.67a.77.77 0 0 1 0 1.09z" fill="url(#b)"/><path d="M97.21 30.84l-6.38 6.39L66.76 13.1a9.07 9.07 0 0 1 0-12.79.89.89 0 0 1 1.24 0l29.2 29.27a.88.88 0 0 1 0 1.26z" fill="#fff"/></g><path d="M55.85 29.28h7.21v13.34a21.26 21.26 0 0 1-6.43 3.1 26.1 26.1 0 0 1-7.35 1.08 20.43 20.43 0 0 1-9.54-2.19 16.6 16.6 0 0 1-6.64-6.06 17.12 17.12 0 0 1 0-17.55 16.53 16.53 0 0 1 6.69-6 21 21 0 0 1 9.64-2.18 21.89 21.89 0 0 1 8.13 1.44 16.08 16.08 0 0 1 6.13 4.23L58.63 23a11.89 11.89 0 0 0-8.81-3.71 12.47 12.47 0 0 0-5.77 1.32 9.64 9.64 0 0 0-3.95 3.72 11.32 11.32 0 0 0 0 10.94A9.91 9.91 0 0 0 44 39a12 12 0 0 0 5.72 1.34 13.08 13.08 0 0 0 6.13-1.41z" fill="#fff"/></g></g></svg>
