<svg id="Layer_1" data-name="Layer 1" xmlns="http://www.w3.org/2000/svg" viewBox="0 0 337.3 292.11"><path d="M250.67,4l82,142.06-82,142.05h-164l-82-142L86.63,4h164M253,0H84.33L0,146.06,84.33,292.11H253l84.32-146L253,0Z" style="fill:#fff"/><path d="M134.1,128.57,134,86.45l-20.66,34.7H106L85.46,87.35v41.22H70.22V58.38H83.66L109.93,102,135.8,58.38h13.34l.2,70.19Z" style="fill:#fff"/><path d="M240.08,203.83h14.84v28.48a42.34,42.34,0,0,1-13.23,6.62,51.37,51.37,0,0,1-15.14,2.3,41,41,0,0,1-19.66-4.66,34.8,34.8,0,0,1-13.69-12.93,37.73,37.73,0,0,1,0-37.4A34.56,34.56,0,0,1,207,173.3a41.81,41.81,0,0,1,19.86-4.66,43.26,43.26,0,0,1,16.74,3.11,33.24,33.24,0,0,1,12.64,9L245.8,190.4a24.15,24.15,0,0,0-18.15-7.93,24.76,24.76,0,0,0-11.93,2.81,20.19,20.19,0,0,0-8.13,7.92,25,25,0,0,0,0,23.37,20.57,20.57,0,0,0,8.08,8,24,24,0,0,0,11.78,2.86,26.36,26.36,0,0,0,12.63-3Z" style="fill:#fff"/><path d="M88.83,228.38a2.5,2.5,0,0,1-1.77-4.27L246.71,64.47A2.5,2.5,0,1,1,250.24,68L90.6,227.65A2.49,2.49,0,0,1,88.83,228.38Z" style="fill:#fff"/></svg>