<svg width="100" height="100" xmlns="http://www.w3.org/2000/svg"><g fill-rule="nonzero" fill="none"><path fill="#F0DB4F" d="M0 0h100v100H0z"/><path d="M91.728 75.947c-.734-4.586-3.718-8.437-12.556-12.03-3.07-1.415-6.492-2.427-7.513-4.759-.362-1.357-.41-2.121-.18-2.943.657-2.666 3.832-3.497 6.349-2.733 1.62.545 3.156 1.797 4.08 3.794 4.33-2.81 4.32-2.79 7.342-4.721-1.106-1.72-1.697-2.513-2.422-3.249-2.603-2.914-6.15-4.415-11.822-4.3-.982.124-1.974.258-2.956.382-2.831.717-5.53 2.208-7.112 4.205-4.748 5.4-3.394 14.85 2.384 18.739 5.691 4.28 14.053 5.255 15.12 9.26 1.04 4.901-3.594 6.487-8.199 5.924-3.394-.707-5.282-2.437-7.322-5.581-3.756 2.179-3.756 2.179-7.618 4.405.916 2.007 1.879 2.915 3.414 4.654 7.265 7.386 25.446 7.023 28.706-4.157.134-.382 1.011-2.943.305-6.89zM54.164 45.598h-9.381l-.038 24.31c0 5.17.267 9.91-.573 11.362-1.373 2.857-4.929 2.504-6.55 1.95-1.65-.813-2.488-1.97-3.46-3.603-.267-.468-.468-.832-.535-.86-2.545 1.557-5.081 3.124-7.627 4.682 1.268 2.609 3.137 4.873 5.53 6.345 3.575 2.15 8.38 2.81 13.405 1.653 3.27-.956 6.092-2.934 7.57-5.944 2.135-3.946 1.678-8.724 1.659-14.008.048-8.62 0-17.239 0-25.887z" fill="#323330"/></g></svg>