<svg id="Layer_1" data-name="Layer 1" xmlns="http://www.w3.org/2000/svg" viewBox="0 0 2452.29 2122.51">
  <title>laravel</title>
  <path d="M1546.41,1850.6a37.74,37.74,0,0,1-32.38-18.34L1228.5,1356.09,695.07,1501.14a37.71,37.71,0,0,1-43.24-18.7L28.27,309.42a37.75,37.75,0,0,1,28.3-55.13L586.46,183a37.78,37.78,0,0,1,37.41,18l640,1067.25,743.29-202.12L1758.89,716.2A37.75,37.75,0,0,1,1781,657.62l347.78-82.14a37.74,37.74,0,0,1,38.14,13.14l300.95,375.74a37.76,37.76,0,0,1-19.57,60l-317,86.21,276.4,389.6a37.74,37.74,0,0,1-18.31,57.47l-830.48,290.81A37.82,37.82,0,0,1,1546.41,1850.6Zm-242.22-515.09L1563,1767.05,2317.08,1503,2053.67,1131.7ZM120.4,321.88l584,1098.5,483.81-131.56L571.9,261.12ZM1852.89,718.22,2084.74,1045,2373,966.64l-250-312.2Z" transform="translate(-23.86 -182.65)" style="fill: #f0543f"/>
  <g>
    <path d="M564.41,1958.89H596v340H564.41Z" transform="translate(-23.86 -182.65)" style="fill: #6d6e6e"/>
    <path d="M905.93,2053.57v245.27H874.82v-42.16Q855,2280.82,830.3,2293t-54,12.17q-52.06,0-88.93-37.76t-36.85-91.86q0-53,37.19-90.62t89.5-37.65q30.19,0,54.66,12.85t42.94,38.55v-45.09Zm-126.12,24.12a95.15,95.15,0,0,0-84.1,49.32,99.38,99.38,0,0,0,.11,99.07,96.74,96.74,0,0,0,35.69,36.82,93.23,93.23,0,0,0,48.07,13.17A98.63,98.63,0,0,0,828.67,2263a91.42,91.42,0,0,0,35.69-35.35q12.48-22.29,12.49-50.22,0-42.55-28-71.15T779.81,2077.69Z" transform="translate(-23.86 -182.65)" style="fill: #6d6e6e"/>
    <path d="M965,2053.57h32.23v35.85q14.43-21.2,30.43-31.68t33.37-10.48q13.07,0,28,8.34l-16.46,26.6q-9.91-4.27-16.68-4.28-15.78,0-30.43,13t-22.32,40.24q-5.85,21-5.86,84.76v83H965Z" transform="translate(-23.86 -182.65)" style="fill: #6d6e6e"/>
    <path d="M1360.17,2053.57v245.27h-31.11v-42.16q-19.85,24.14-44.52,36.3t-54,12.17q-52.08,0-88.93-37.76t-36.86-91.86q0-53,37.2-90.62t89.49-37.65q30.21,0,54.67,12.85t42.94,38.55v-45.09ZM1234,2077.69a95.15,95.15,0,0,0-84.1,49.32,99.35,99.35,0,0,0,.12,99.07,96.72,96.72,0,0,0,35.68,36.82,93.29,93.29,0,0,0,48.08,13.17,98.65,98.65,0,0,0,49.09-13.06,91.4,91.4,0,0,0,35.68-35.35q12.5-22.29,12.5-50.22,0-42.55-28-71.15T1234,2077.69Z" transform="translate(-23.86 -182.65)" style="fill: #6d6e6e"/>
    <path d="M1408,2053.57h33.59l82.32,178.79,81.34-178.79H1639l-112.26,245.27h-5.86Z" transform="translate(-23.86 -182.65)" style="fill: #6d6e6e"/>
    <path d="M1893.53,2217.46l26.6,14q-13.08,25.71-30.24,41.48a119.79,119.79,0,0,1-38.58,24q-21.45,8.23-48.52,8.23-60,0-93.86-39.34t-33.84-88.93q0-46.66,28.65-83.18,36.33-46.44,97.25-46.44,62.73,0,100.18,47.57,26.63,33.59,27.07,83.85H1707.55q.9,42.74,27.31,70.06t65.23,27.33a104.92,104.92,0,0,0,36.45-6.51,95.81,95.81,0,0,0,30.13-17.3Q1879.09,2241.49,1893.53,2217.46Zm0-66.05q-6.33-25.24-18.4-40.35t-31.93-24.35a97.91,97.91,0,0,0-41.76-9.24q-36.11,0-62.07,23.22-19,16.91-28.66,50.72Z" transform="translate(-23.86 -182.65)" style="fill: #6d6e6e"/>
    <path d="M1982.35,1958.89h31.56v340h-31.56Z" transform="translate(-23.86 -182.65)" style="fill: #6d6e6e"/>
  </g>
</svg>
