<svg data-name="Layer 1" xmlns="http://www.w3.org/2000/svg" viewBox="0 0 2452.29 2122.51"><path d="M1522.55 1667.95a37.74 37.74 0 0 1-32.38-18.34l-285.53-476.17-533.43 145.05a37.71 37.71 0 0 1-43.24-18.7L4.41 126.77a37.75 37.75 0 0 1 28.3-55.13L562.6.35a37.78 37.78 0 0 1 37.41 18l640 1067.25 743.29-202.12-248.27-349.93a37.75 37.75 0 0 1 22.11-58.58l347.78-82.14a37.74 37.74 0 0 1 38.14 13.14l300.95 375.74a37.76 37.76 0 0 1-19.57 60l-317 86.21 276.4 389.6a37.74 37.74 0 0 1-18.31 57.47l-830.48 290.81a37.82 37.82 0 0 1-12.5 2.15zm-242.22-515.09l258.81 431.54 754.08-264.05-263.41-371.3zM96.54 139.23l584 1098.5 483.81-131.56L548.04 78.47zm1732.49 396.34l231.85 326.78 288.26-78.36-250-312.2z" fill="#f0543f"/><path d="M540.55 1776.24h31.59v340h-31.59zm341.52 94.68v245.27h-31.11v-42.16q-19.82 24.14-44.52 36.32t-54 12.17q-52.06 0-88.93-37.76t-36.85-91.86q0-53 37.19-90.62t89.5-37.65q30.19 0 54.66 12.85t42.94 38.55v-45.09zm-126.12 24.12a95.15 95.15 0 0 0-84.1 49.32 99.38 99.38 0 0 0 .11 99.07 96.74 96.74 0 0 0 35.69 36.82 93.23 93.23 0 0 0 48.07 13.17 98.63 98.63 0 0 0 49.09-13.07A91.42 91.42 0 0 0 840.5 2045q12.48-22.29 12.49-50.22 0-42.55-28-71.15t-69.04-28.59zm185.19-24.12h32.23v35.85q14.43-21.2 30.43-31.68t33.37-10.48q13.07 0 28 8.34l-16.46 26.6q-9.91-4.27-16.68-4.28-15.78 0-30.43 13t-22.32 40.24q-5.85 21-5.86 84.76v83h-32.28zm395.17 0v245.27h-31.11v-42.16q-19.85 24.14-44.52 36.3t-54 12.17q-52.08 0-88.93-37.76t-36.86-91.86q0-53 37.2-90.62t89.49-37.65q30.21 0 54.67 12.85t42.94 38.55v-45.09zm-126.17 24.12a95.15 95.15 0 0 0-84.1 49.32 99.35 99.35 0 0 0 .12 99.07 96.72 96.72 0 0 0 35.68 36.82 93.29 93.29 0 0 0 48.08 13.17 98.65 98.65 0 0 0 49.09-13.06 91.4 91.4 0 0 0 35.68-35.35q12.5-22.29 12.5-50.22 0-42.55-28-71.15t-69.05-28.6zm174-24.12h33.59l82.32 178.79 81.34-178.79h33.75l-112.26 245.27h-5.86zm485.53 163.89l26.6 14q-13.08 25.71-30.24 41.48a119.79 119.79 0 0 1-38.58 24q-21.45 8.23-48.52 8.23-60 0-93.86-39.34t-33.84-88.93q0-46.66 28.65-83.18 36.33-46.44 97.25-46.44 62.73 0 100.18 47.57 26.63 33.59 27.07 83.85h-220.69q.9 42.74 27.31 70.06t65.23 27.33a104.92 104.92 0 0 0 36.45-6.51 95.81 95.81 0 0 0 30.13-17.3q12.42-10.79 26.86-34.82zm0-66.05q-6.33-25.24-18.4-40.35t-31.93-24.35a97.91 97.91 0 0 0-41.76-9.24q-36.11 0-62.07 23.22-19 16.91-28.66 50.72zm88.82-192.52h31.56v340h-31.56z" fill="#6d6e6e"/></svg>