<svg width="101" height="96" xmlns="http://www.w3.org/2000/svg"><g fill="#764ABC" fill-rule="nonzero"><path d="M53.297 34.202c1.886.026 3.565.1 4.662.195 4.72.409 9.138 1.339 12.844 2.614 5.664 1.948 10.936 4.832 15.818 8.653 4.126 3.645 6.92 6.627 8.386 8.945.87 1.377 2.402 3.562 3.566 6.422.325.796.814 1.949 1.26 3.473.189.648.463 1.77.822 3.368.215 2.032.329 3.472.342 4.32a23.534 23.534 0 0 1-.342 4.273c-.189 1.15-.482 2.567-1.125 4.159-.245.606-.727 1.571-1.446 2.896-2.051 2.948-4.298 5.275-6.74 6.984-2.443 1.708-5.564 3.148-9.365 4.32-3.245 1.03-7.211 1.325-11.898.883-2.121-.2-4.565-.766-6.681-1.391-1.4-.414-3.39-1.193-5.972-2.338l5.755-4.577c1.444.592 2.503.992 3.176 1.201 1.746.542 3.349.824 4.444 1.017.981.172 2.157.313 3.547.37.708.028 1.892.028 3.553 0 1.663-.255 2.834-.472 3.515-.651a18.603 18.603 0 0 0 4.108-1.63c.951-.505 2.13-1.202 3.283-2.24.511-.46 1.28-1.293 2.308-2.498 1.322-1.917 2.185-3.311 2.59-4.183.688-1.486.943-3.011 1.123-4.047.21-1.22.435-2.847.177-4.812-.103-.782-.424-2.076-.963-3.881-.863-2.593-1.838-4.7-2.927-6.322-1.634-2.433-2.81-3.922-3.85-5.116-1.158-1.332-2.973-3.029-5.288-4.748-.937-.696-2.531-1.755-4.78-3.177-2.171-1.2-3.84-2.05-5.007-2.55-2.796-1.199-5.922-2.167-7.747-2.6-1.855-.44-4.91-.985-8.075-1.183-.824-.051-2.23-.212-3.635-.196-.499.005-1.231.05-2.197.137a7.181 7.181 0 0 1-6.606 4.348c-3.965 0-7.179-3.201-7.179-7.15 0-3.95 3.214-7.152 7.179-7.152a7.181 7.181 0 0 1 6.376 3.864c1.354-.009 2.35-.009 2.99 0z"/><path d="M68.088 70.103c-.966 1.613-1.87 3.025-2.502 3.924-2.716 3.869-5.735 7.214-8.698 9.774-4.527 3.912-9.672 7.018-15.437 9.32-5.234 1.736-9.225 2.657-11.974 2.762-1.633.062-4.3.29-7.37-.134-.854-.119-2.101-.273-3.65-.65-.658-.161-1.772-.486-3.34-.975-1.875-.83-3.185-1.453-3.928-1.865a23.725 23.725 0 0 1-3.546-2.432c-.905-.737-1.991-1.7-3.054-3.05-.404-.514-1.003-1.413-1.796-2.695C1.256 80.838.355 77.736.091 74.775c-.264-2.962.045-6.374.928-10.238.726-3.316 2.454-6.885 5.183-10.707 1.235-1.73 2.949-3.556 4.551-5.068 1.06-1.001 2.734-2.329 5.02-3.984l1.103 7.254c-1.237.95-2.115 1.663-2.634 2.14-1.344 1.235-2.392 2.476-3.107 3.325a26.47 26.47 0 0 0-2.095 2.875c-.38.597-.972 1.619-1.777 3.065-.61 1.562-1.008 2.681-1.193 3.358-.482 1.77-.6 3.222-.638 4.358-.036 1.074-.019 2.44.307 3.953.144.671.484 1.751 1.018 3.24 1.005 2.099 1.786 3.54 2.343 4.325.948 1.338 2.146 2.32 2.957 2.993.955.792 2.259 1.8 4.097 2.56.731.301 2.017.671 3.857 1.11 2.686.551 5.007.763 6.962.635 2.933-.193 4.816-.464 6.375-.763 1.737-.333 4.121-1.052 6.774-2.189 1.075-.46 2.793-1.306 5.155-2.535 2.129-1.273 3.703-2.288 4.722-3.044 2.44-1.813 4.847-4.026 6.136-5.384 1.31-1.38 3.312-3.743 5.068-6.375.457-.685 1.3-1.818 1.99-3.038.244-.433.57-1.087.979-1.963a7.128 7.128 0 0 1-.478-7.874c1.984-3.42 6.376-4.592 9.81-2.617 3.435 1.974 4.612 6.348 2.629 9.768a7.188 7.188 0 0 1-6.55 3.57 160.854 160.854 0 0 1-1.495 2.578z"/><path d="M27.367 62.907c-.89-1.654-1.64-3.153-2.089-4.154-1.93-4.31-3.256-8.607-3.933-12.453-1.036-5.877-1.06-11.867-.072-17.97 1.2-5.36 2.464-9.24 3.79-11.639.786-1.424 1.963-3.818 3.91-6.218.541-.668 1.317-1.653 2.44-2.78.476-.479 1.33-1.262 2.558-2.349 1.68-1.171 2.89-1.969 3.628-2.391a23.772 23.772 0 0 1 3.919-1.773c1.1-.393 2.488-.824 4.198-1.035.65-.08 1.732-.129 3.244-.145 3.584.358 6.718 1.187 9.402 2.487 2.685 1.299 5.463 3.32 8.335 6.062 2.48 2.327 4.661 5.638 6.546 9.934.853 1.945 1.541 4.347 2.018 6.493.315 1.42.596 3.531.843 6.334l-6.81-2.793c-.181-1.545-.343-2.661-.486-3.35-.37-1.782-.9-3.315-1.262-4.363-.324-.937-.771-2.03-1.396-3.268-.318-.63-.892-1.661-1.723-3.094-1.03-1.325-1.788-2.24-2.275-2.746a18.551 18.551 0 0 0-3.423-2.788c-.905-.584-2.09-1.272-3.56-1.773-.652-.223-1.756-.49-3.313-.8-2.324-.223-3.968-.299-4.93-.228-1.639.12-3.102.637-4.098.983-1.174.407-2.712 1-4.312 2.177-.637.469-1.618 1.375-2.942 2.72-1.859 2.008-3.236 3.879-4.133 5.613-1.344 2.602-2.08 4.348-2.626 5.832-.607 1.654-1.217 4.058-1.605 6.906-.157 1.155-.314 3.056-.472 5.704 0 2.472.062 4.337.189 5.596.303 3.016.969 6.208 1.473 8.007.513 1.83 1.516 4.754 2.877 7.606.355.743.895 2.045 1.59 3.262.247.431.642 1.047 1.186 1.847 2.776-.286 5.584 1.063 7.023 3.646 1.922 3.453.67 7.804-2.8 9.718-3.468 1.914-7.838.666-9.76-2.787a7.12 7.12 0 0 1 .3-7.426 160.749 160.749 0 0 1-1.449-2.604z"/></g></svg>