<?xml version="1.0" encoding="UTF-8"?>
<svg width="320px" height="120px" viewBox="0 0 320 120" version="1.1" xmlns="http://www.w3.org/2000/svg" xmlns:xlink="http://www.w3.org/1999/xlink">
    <!-- Generator: Sketch 52.5 (67469) - http://www.bohemiancoding.com/sketch -->
    <title>Artboard 3</title>
    <desc>Created with Sketch.</desc>
    <defs>
        <polygon id="path-1" points="159.858875 0.539557862 47.331625 35.5808435 0.71775 120.171526 47.331625 204.772201 159.858875 239.803494 272.399417 204.772201 319 120.171526 272.399417 35.5808435"></polygon>
    </defs>
    <g id="Welcome" stroke="none" stroke-width="1" fill="none" fill-rule="evenodd">
        <g id="Desktop-HD" transform="translate(-560.000000, -467.000000)">
            <g id="Group-2" transform="translate(0.000000, 98.000000)">
                <g id="Artboard-3" transform="translate(560.000000, 369.000000)">
                    <polygon id="Shape" stroke-opacity="0.324303668" stroke="#FFFFFF" style="mix-blend-mode: hard-light;" points="160 1 47.5725382 36.0026309 1 120.5 47.5725382 205.00735 160 240 272.440742 205.00735 319 120.5 272.440742 36.0026309"></polygon>
                    <g id="Group">
                        <mask id="mask-2" fill="white">
                            <use xlink:href="#path-1"></use>
                        </mask>
                        <g id="Shape"></g>
                        <g style="mix-blend-mode: hard-light;" mask="url(#mask-2)" id="Shape" stroke="#FFFFFF" stroke-opacity="0.324303668">
                            <polyline style="mix-blend-mode: hard-light;" points="132.770458 49.6992742 47.331625 35.5808435 159.858875 239.803494 272.399417 35.5808435 186.947292 49.6992742"></polyline>
                            <polyline style="mix-blend-mode: hard-light;" points="187.17325 190.254097 272.399417 204.772201 159.858875 0.539557862 47.331625 204.772201 132.557792 190.254097"></polyline>
                            <polygon style="mix-blend-mode: hard-light;" points="319 120.171526 135.521833 22.2517659 0.71775 120.171526 184.209208 22.2517659"></polygon>
                            <path d="M159.858875,0.539557862 L160.496875,35.5808435" style="mix-blend-mode: hard-light;"></path>
                        </g>
                    </g>
                </g>
            </g>
        </g>
    </g>
</svg>