<?xml version="1.0" encoding="UTF-8"?>
<svg width="32px" height="32px" viewBox="0 0 32 32" version="1.1" xmlns="http://www.w3.org/2000/svg" xmlns:xlink="http://www.w3.org/1999/xlink">
    <!-- Generator: Sketch 51.3 (57544) - http://www.bohemiancoding.com/sketch -->
    <title>spotify</title>
    <desc>Created with Sketch.</desc>
    <defs></defs>
    <g id="Welcome" stroke="none" stroke-width="1" fill="none" fill-rule="evenodd">
        <g id="Desktop-HD" transform="translate(-633.000000, -1581.000000)" fill="#000000" fill-rule="nonzero">
            <g id="Group-3" transform="translate(0.000000, 587.000000)">
                <g id="spotify" transform="translate(633.000000, 994.000000)">
                    <path d="M16,0 C7.2,0 0,7.2 0,16 C0,24.8 7.2,32 16,32 C24.8,32 32,24.8 32,16 C32,7.2 24.881,0 16,0 Z M23.363,23.119 C23.044,23.6 22.482,23.756 22,23.438 C18.238,21.119 13.519,20.638 7.919,21.919 C7.356,22.082 6.882,21.681 6.719,21.2 C6.557,20.637 6.956,20.162 7.438,20 C13.519,18.637 18.801,19.2 22.957,21.762 C23.52,22 23.601,22.637 23.363,23.118 L23.363,23.119 Z M25.281,18.719 C24.881,19.282 24.162,19.519 23.6,19.119 C19.281,16.482 12.719,15.681 7.681,17.282 C7.043,17.445 6.319,17.119 6.162,16.482 C6,15.845 6.324,15.119 6.962,14.963 C12.8,13.201 19.999,14.082 24.962,17.126 C25.437,17.364 25.681,18.164 25.281,18.72 L25.281,18.719 Z M25.438,14.238 C20.319,11.201 11.757,10.875 6.875,12.4 C6.075,12.638 5.275,12.162 5.037,11.437 C4.8,10.637 5.274,9.837 6,9.599 C11.681,7.918 21.038,8.236 26.962,11.761 C27.681,12.161 27.924,13.124 27.525,13.842 C27.119,14.398 26.162,14.636 25.438,14.236 L25.438,14.238 Z" id="Shape"></path>
                </g>
            </g>
        </g>
    </g>
</svg>