<?xml version="1.0" encoding="UTF-8"?>
<svg width="32px" height="26px" viewBox="0 0 32 26" version="1.1" xmlns="http://www.w3.org/2000/svg" xmlns:xlink="http://www.w3.org/1999/xlink">
    <!-- Generator: Sketch 51.3 (57544) - http://www.bohemiancoding.com/sketch -->
    <title>twitter</title>
    <desc>Created with Sketch.</desc>
    <defs></defs>
    <g id="Welcome" stroke="none" stroke-width="1" fill="none" fill-rule="evenodd">
        <g id="Desktop-HD" transform="translate(-581.000000, -1583.000000)" fill="#000000" fill-rule="nonzero">
            <g id="Group-3" transform="translate(0.000000, 587.000000)">
                <g id="twitter" transform="translate(580.000000, 996.000000)">
                    <path d="M33,3.075 C31.825,3.6 30.556,3.95 29.231,4.106 C30.587,3.293 31.625,2.006 32.118,0.475 C30.849,1.225 29.443,1.775 27.949,2.069 C26.749,0.794 25.043,0 23.155,0 C19.53,0 16.592,2.938 16.592,6.563 C16.592,7.075 16.648,7.575 16.761,8.057 C11.305,7.782 6.467,5.169 3.23,1.195 C2.667,2.164 2.343,3.295 2.343,4.495 C2.343,6.77 3.499,8.782 5.262,9.958 C4.187,9.927 3.175,9.627 2.287,9.139 C2.287,9.164 2.287,9.195 2.287,9.22 C2.287,12.401 4.55,15.058 7.556,15.657 C7.006,15.807 6.425,15.888 5.825,15.888 C5.4,15.888 4.994,15.844 4.588,15.769 C5.426,18.375 7.851,20.275 10.719,20.332 C8.469,22.094 5.644,23.145 2.563,23.145 C2.032,23.145 1.513,23.114 0.994,23.051 C3.907,24.92 7.356,26.001 11.063,26.001 C23.138,26.001 29.744,15.995 29.744,7.32 C29.744,7.033 29.738,6.751 29.725,6.47 C31.006,5.551 32.119,4.395 33,3.076 L33,3.075 Z" id="Shape"></path>
                </g>
            </g>
        </g>
    </g>
</svg>