<svg width="320" height="241" xmlns="http://www.w3.org/2000/svg" xmlns:xlink="http://www.w3.org/1999/xlink"><defs><path id="a" d="M159.859.54L47.332 35.58.718 120.173l46.614 84.6 112.527 35.031 112.54-35.03L319 120.171 272.4 35.58z"/></defs><g fill="none" fill-rule="evenodd"><path stroke-opacity=".324" stroke="#FFF" style="mix-blend-mode:hard-light" d="M160 1L47.573 36.003 1 120.5l46.573 84.507L160 240l112.44-34.993L319 120.5l-46.56-84.497z"/><g><mask id="b" fill="#fff"><use xlink:href="#a"/></mask><g style="mix-blend-mode:hard-light" mask="url(#b)" stroke="#FFF" stroke-opacity=".324"><path style="mix-blend-mode:hard-light" d="M132.77 49.7L47.332 35.58l112.527 204.223 112.54-204.222-85.452 14.118"/><path style="mix-blend-mode:hard-light" d="M319 120.172l-183.478 97.54L.718 120.172l183.491 97.54z"/><path style="mix-blend-mode:hard-light" d="M187.173 190.254l85.226 14.518L159.86.54 47.332 204.772l85.226-14.518M159.859 204.772v35.041"/><path style="mix-blend-mode:hard-light" d="M319 120.172l-183.478-97.92L.718 120.172l183.491-97.92zM159.859.54l.638 35.04"/></g></g></g></svg>